<svg xmlns="http://www.w3.org/2000/svg" version="1.1" viewBox="264 186.96 506 527.04">
<path d="M0 0 C3.43618725 3.34807989 4.5650553 6.49017381 6 11 C6.66 11.33 7.32 11.66 8 12 C9.11447715 14.34040201 10.13631845 16.66937791 11.125 19.0625 C13.66893468 25.04550788 16.3479777 30.9317497 19.25 36.75 C19.57887207 37.41652588 19.90774414 38.08305176 20.24658203 38.76977539 C23.07370978 44.83682824 23.07370978 44.83682824 28 49 C27.67 49.99 27.34 50.98 27 52 C27.69202706 54.04282757 27.69202706 54.04282757 28.87109375 56.16015625 C29.28037109 56.95357422 29.68964844 57.74699219 30.11132812 58.56445312 C30.54896484 59.38880859 30.98660156 60.21316406 31.4375 61.0625 C32.29377458 62.69743734 33.14680645 64.33407841 33.99609375 65.97265625 C34.57121704 67.05945679 34.57121704 67.05945679 35.15795898 68.16821289 C36 70 36 70 36 72 C36.66 72.33 37.32 72.66 38 73 C38.88064575 74.60331726 38.88064575 74.60331726 39.78173828 76.70581055 C40.29678421 77.88552177 40.29678421 77.88552177 40.82223511 79.08906555 C41.19285065 79.95041611 41.56346619 80.81176666 41.9453125 81.69921875 C46.88711751 92.92916317 52.33645217 103.86764224 57.875 114.8125 C59.72956353 118.484171 61.58122045 122.1572872 63.4296875 125.83203125 C64.12502594 127.21432419 64.12502594 127.21432419 64.83441162 128.62454224 C68.03348138 135.00897245 71.13519308 141.43471573 74.1953125 147.88671875 C78.58245806 157.12677153 83.10491527 166.29335503 87.6875 175.4375 C88.02425877 176.10957174 88.36101753 176.78164349 88.70798111 177.47408104 C91.13578789 182.31749432 93.56747905 187.15895302 96 192 C98.77344236 197.51952687 101.54527244 203.03985424 104.3125 208.5625 C104.64617773 209.22835554 104.97985546 209.89421108 105.32364464 210.58024406 C110.58467285 221.08712938 115.71971454 231.64886295 120.74731445 242.26977539 C123.7565436 248.61756426 126.90640048 254.89286075 130.07333374 261.16305542 C131.60519393 264.19968511 133.12451756 267.24258574 134.64453125 270.28515625 C135.34935993 271.69539653 136.05419415 273.10563404 136.7590332 274.51586914 C137.12501617 275.24822784 137.49099915 275.98058655 137.86807251 276.73513794 C139.79691284 280.5945347 141.72663386 284.45349108 143.65625 288.3125 C144.4596395 289.91926879 145.26302489 291.52603964 146.06640625 293.1328125 C146.46746582 293.93493164 146.86852539 294.73705078 147.28173828 295.56347656 C151.37817383 303.75634766 151.37817383 303.75634766 155.47460938 311.94921875 C155.85926865 312.71844666 156.24392792 313.48767456 156.64024353 314.2802124 C157.67044392 316.34082127 158.70030066 318.40160195 159.72999573 320.46246338 C163.7725565 328.55229713 167.82355898 336.6378519 171.88087559 344.72029495 C175.47107676 351.8724456 179.05749111 359.0264897 182.64244747 366.1812706 C185.04184914 370.96955578 187.44277906 375.75706304 189.84692383 380.54296875 C192.1938315 385.21509513 194.53685318 389.88915107 196.87716866 394.56458282 C197.76528166 396.33711875 198.65480066 398.10895095 199.5457592 399.88005829 C200.78414094 402.34235099 202.01753137 404.80708252 203.24975586 407.27246094 C203.6169725 407.99970367 203.98418915 408.72694641 204.36253357 409.47622681 C205.93217008 412.6283897 207.2320657 415.56635188 208 419 C197.76884005 419.09265338 187.5377798 419.1637413 177.30628586 419.20724869 C172.55543964 419.22812944 167.80488031 419.2564559 163.05419922 419.30175781 C158.47006661 419.3451983 153.88621006 419.36913343 149.30188751 419.37950897 C147.55234684 419.38690359 145.80282138 419.40134355 144.05339813 419.42292023 C141.60395075 419.45193101 139.15564605 419.45595708 136.70605469 419.45410156 C135.61956383 419.47567322 135.61956383 419.47567322 134.51112366 419.49768066 C131.04585589 419.46925058 129.34333713 419.2854695 126.63691711 417.03520203 C125.82664314 416.02777702 125.82664314 416.02777702 125 415 C123.12977735 413.94008131 123.12977735 413.94008131 121.12109375 413.25390625 C120.00178467 412.8377002 120.00178467 412.8377002 118.85986328 412.41308594 C118.0604834 412.13239258 117.26110352 411.85169922 116.4375 411.5625 C115.59687012 411.2624707 114.75624023 410.96244141 113.89013672 410.65332031 C65.73751719 393.83982879 10.3459883 394.67581612 -37 414 C-39.66853533 415.33031944 -42.3002309 416.69967101 -44.90844727 418.14453125 C-47 419 -47 419 -50 418 C-33.39740119 397.0346745 -5.67952601 386.59494519 19.51049805 380.61108398 C22.10654171 380.00946197 22.10654171 380.00946197 25 379 C27.6719597 378.76268779 30.32267122 378.57518471 33 378.4375 C34.19290649 378.37598755 34.19290649 378.37598755 35.40991211 378.31323242 C61.28828007 377.08889588 86.89690236 378.74092838 111 389 C111.99 389.33 112.98 389.66 114 390 C113.49025635 388.96069336 112.9805127 387.92138672 112.45532227 386.85058594 C110.56358285 382.99098657 108.67690859 379.12892969 106.79174805 375.26611328 C105.97541862 373.59519152 105.15772047 371.92493771 104.33862305 370.25537109 C103.16093504 367.85428735 101.98820391 365.4508378 100.81640625 363.046875 C100.44971329 362.30193787 100.08302032 361.55700073 99.70521545 360.78948975 C99.3649382 360.08906555 99.02466095 359.38864136 98.67407227 358.66699219 C98.22439842 357.747659 98.22439842 357.747659 97.76564026 356.80975342 C97 355 97 355 96.52037048 352.83331299 C96.34864822 352.2283197 96.17692596 351.62332642 96 351 C95.34 350.67 94.68 350.34 94 350 C93.31023805 348.00784717 92.64974802 346.00556026 92 344 C90.7365161 341.08072234 89.35470007 338.22020502 87.97265625 335.35546875 C87.58307236 334.54507645 87.19348846 333.73468414 86.792099 332.8997345 C85.97127351 331.19689868 85.14836391 329.49506607 84.32348633 327.79418945 C83.06044163 325.18324497 81.81237157 322.56546669 80.56445312 319.94726562 C79.76393284 318.2912255 78.96253128 316.63561102 78.16015625 314.98046875 C77.78818619 314.19512253 77.41621613 313.40977631 77.03297424 312.60063171 C76.09828546 310.6944074 75.05733595 308.84102551 74 307 C73.01 306.67 72.02 306.34 71 306 C71.33 305.01 71.66 304.02 72 303 C70.95041073 299.98309137 70.95041073 299.98309137 69.32421875 296.65234375 C69.03899857 296.03984268 68.75377838 295.42734161 68.45991516 294.79627991 C67.85494422 293.50222867 67.24521189 292.21039432 66.63110352 290.9206543 C65.69164457 288.94621057 64.76752988 286.96514938 63.84570312 284.98242188 C61.09583257 278.54449333 61.09583257 278.54449333 57 273 C56.63199913 271.67581563 56.3019847 270.34078116 56 269 C55.48380674 267.68599264 54.93637292 266.38395803 54.36328125 265.09375 C54.03585937 264.35495605 53.7084375 263.61616211 53.37109375 262.85498047 C53.02175781 262.07783691 52.67242188 261.30069336 52.3125 260.5 C51.95671875 259.70352051 51.6009375 258.90704102 51.234375 258.08642578 C48.33060122 251.63229419 45.25383515 245.28581789 42 239 C41.34 239 40.68 239 40 239 C38.9375 237.1875 38.9375 237.1875 38 235 C38.33 234.01 38.66 233.02 39 232 C38.12516085 229.83284443 38.12516085 229.83284443 37 228 C36.34 228.33 35.68 228.66 35 229 C33.05527633 225.61787189 31.84438489 222.79900719 31.5 218.9375 C31.00339591 215.02674277 30.36330405 213.09047453 28 210 C27.01 209.34 26.02 208.68 25 208 C25.29535645 207.1349585 25.29535645 207.1349585 25.59667969 206.25244141 C26.0847933 203.52645097 25.62703703 202.44004661 24.453125 199.9609375 C24.1025 199.21585938 23.751875 198.47078125 23.390625 197.703125 C23.01421875 196.93484375 22.6378125 196.1665625 22.25 195.375 C21.8890625 194.59898437 21.528125 193.82296875 21.15625 193.0234375 C18.95838678 188.3223558 18.95838678 188.3223558 15 185 C14.78000034 183.36481026 14.567209 181.72826423 14.39453125 180.08740234 C13.59675024 175.86646942 11.41163272 172.12509984 9.5 168.3125 C8.59014206 166.46076663 7.68265143 164.60786848 6.77734375 162.75390625 C6.31569824 161.80918457 5.85405273 160.86446289 5.37841797 159.89111328 C4.0099325 157.02083257 2.71316688 154.12915081 1.44140625 151.21484375 C1.04050781 150.29727295 0.63960937 149.37970215 0.2265625 148.43432617 C-0.53807844 146.67106544 -1.29485158 144.90436789 -2.04296875 143.1340332 C-2.3884375 142.342146 -2.73390625 141.55025879 -3.08984375 140.734375 C-3.38753662 140.03538086 -3.68522949 139.33638672 -3.99194336 138.61621094 C-4.97774343 136.65320029 -4.97774343 136.65320029 -8 136 C-8.13277344 135.30132812 -8.26554687 134.60265625 -8.40234375 133.8828125 C-8.57894531 132.97273437 -8.75554687 132.06265625 -8.9375 131.125 C-9.19853516 129.76761719 -9.19853516 129.76761719 -9.46484375 128.3828125 C-9.89963701 126.00043683 -9.89963701 126.00043683 -11 124 C-11.99 123.67 -12.98 123.34 -14 123 C-14.0825 122.030625 -14.165 121.06125 -14.25 120.0625 C-14.8076303 115.98430822 -16.37901378 112.60068681 -18.16015625 108.91796875 C-19 107 -19 107 -19 105 C-19.66 104.67 -20.32 104.34 -21 104 C-21.72631836 102.21264648 -21.72631836 102.21264648 -22.40234375 99.93359375 C-23.81208359 95.46104204 -25.5862314 91.30804071 -27.5625 87.0625 C-34.11110106 72.68144176 -39.46607985 57.79293865 -45 43 C-47.71958138 46.34143687 -49.61448647 49.96403913 -51.5 53.8125 C-52.00950195 54.84117187 -52.00950195 54.84117187 -52.52929688 55.890625 C-56.01869177 62.96893407 -59.41310731 70.09376761 -62.79101562 77.22583008 C-65.74700949 83.44970397 -68.79989099 89.61950462 -71.89056396 95.77711487 C-75.57717974 103.13166974 -79.16817679 110.53148695 -82.75 117.9375 C-83.45235579 119.38787589 -84.15474903 120.83823364 -84.85717773 122.28857422 C-89.41888896 131.71159518 -93.96086455 141.14398665 -98.48022461 150.58740234 C-101.24384573 156.35801172 -104.02691315 162.11867036 -106.828125 167.87109375 C-107.49605914 169.24460616 -108.16394644 170.61814135 -108.83178711 171.99169922 C-109.80233281 173.98776461 -110.77378315 175.98335053 -111.74905396 177.97711182 C-116.43380433 187.5544967 -120.72067879 197.21869439 -125 207 C-83.09 207.33 -41.18 207.66 2 208 C1.11336735 211.54653061 0.08989612 213.99435351 -1.58984375 217.19140625 C-2.38865967 218.71954956 -2.38865967 218.71954956 -3.20361328 220.27856445 C-3.7757959 221.36226318 -4.34797852 222.44596191 -4.9375 223.5625 C-5.51999512 224.67262451 -6.10249023 225.78274902 -6.70263672 226.92651367 C-7.89332122 229.19473998 -9.08570543 231.46207485 -10.27978516 233.72851562 C-11.85583031 236.72581978 -13.42079988 239.72852558 -14.98046875 242.734375 C-15.86185991 244.42714543 -16.74336299 246.1198576 -17.625 247.8125 C-18.02581787 248.58730713 -18.42663574 249.36211426 -18.83959961 250.16040039 C-19.40239624 251.23535767 -19.40239624 251.23535767 -19.9765625 252.33203125 C-20.29705566 252.94796143 -20.61754883 253.5638916 -20.94775391 254.19848633 C-22.20058804 256.34341975 -23.31475753 258.15725306 -25 260 C-27.33693218 260.50780869 -27.33693218 260.50780869 -30.14421082 260.51898193 C-31.74067192 260.53985115 -31.74067192 260.53985115 -33.36938477 260.56114197 C-34.53679199 260.5561116 -35.70419922 260.55108124 -36.90698242 260.54589844 C-38.13637039 260.55623611 -39.36575836 260.56657379 -40.63240051 260.57722473 C-44.0042808 260.60168833 -47.3753361 260.60848857 -50.74724746 260.60750484 C-54.27073519 260.61063045 -57.794057 260.6362412 -61.31745911 260.65948486 C-67.98972521 260.70007568 -74.66189352 260.72039272 -81.3342641 260.73345876 C-88.93040755 260.74931845 -96.5263843 260.78772962 -104.12243116 260.82805204 C-119.74823792 260.91049307 -135.37401171 260.9645588 -151 261 C-151.81752303 262.58074564 -152.62881997 264.16471223 -153.4375 265.75 C-154.11619141 267.07257813 -154.11619141 267.07257813 -154.80859375 268.421875 C-155.83873336 270.65102957 -156.47648627 272.6172901 -157 275 C-157.56822532 276.20773098 -158.18083457 277.39523429 -158.828125 278.5625 C-159.39998535 279.61328735 -159.39998535 279.61328735 -159.98339844 280.68530273 C-160.40137695 281.44915283 -160.81935547 282.21300293 -161.25 283 C-166.34303826 292.47180895 -170.8868267 302.17506988 -175.35644531 311.95117188 C-185.48852271 334.086253 -185.48852271 334.086253 -191 340.3125 C-191.4542334 340.83175049 -191.9084668 341.35100098 -192.37646484 341.88598633 C-196.96232988 347.0801804 -201.71855858 352.13018812 -206.4921875 357.15161133 C-207.06453125 357.75513428 -207.636875 358.35865723 -208.2265625 358.98046875 C-208.99347412 359.78327271 -208.99347412 359.78327271 -209.77587891 360.60229492 C-211.10705353 362.00338671 -211.10705353 362.00338671 -212 364 C-212.66 364 -213.32 364 -214 364 C-214.27239502 364.59458008 -214.54479004 365.18916016 -214.82543945 365.80175781 C-215.97029488 367.94440556 -217.12644698 369.42006637 -218.79296875 371.171875 C-219.33727539 371.74969727 -219.88158203 372.32751953 -220.44238281 372.92285156 C-221.01827148 373.52581055 -221.59416016 374.12876953 -222.1875 374.75 C-223.37452696 376.00963593 -224.56073245 377.2700465 -225.74609375 378.53125 C-226.31312012 379.13324219 -226.88014648 379.73523438 -227.46435547 380.35546875 C-229.81941804 382.87751986 -232.08059494 385.47507296 -234.3359375 388.0859375 C-237.83292185 392.10829039 -241.42827835 396.04409317 -245 400 C-246.52125701 401.68711808 -248.04209457 403.37461446 -249.5625 405.0625 C-250.22378906 405.79597656 -250.88507813 406.52945312 -251.56640625 407.28515625 C-253.98125742 409.81603304 -253.98125742 409.81603304 -255.40771484 412.29223633 C-257.71140722 415.62829013 -259.78725101 418.45199389 -263.89309692 419.46884155 C-269.42054837 420.1310433 -274.954306 419.81922516 -280.5 419.5625 C-282.19781045 419.51730066 -283.89573657 419.4762456 -285.59375 419.43945312 C-289.7320466 419.34081296 -293.86473996 419.18585795 -298 419 C-297.76514893 418.41549072 -297.53029785 417.83098145 -297.28833008 417.22875977 C-293.20924215 407.069651 -289.13193835 396.91033699 -285.14453125 386.71484375 C-277.82006996 367.9882258 -270.28147393 349.35468207 -262.66455078 330.74511719 C-261.8023877 328.63868053 -260.94024574 326.53223523 -260.078125 324.42578125 C-259.43899673 322.86426834 -259.43899673 322.86426834 -258.78695679 321.27120972 C-254.49427609 310.77638821 -250.24537932 300.2640222 -246 289.75 C-239.76808499 274.31998258 -233.46104145 258.92341746 -227.05883789 243.56323242 C-226.37549282 241.90899218 -225.70076476 240.25115358 -225.03662109 238.58911133 C-222.6117299 232.53259435 -220.07109168 226.52227057 -217.5625 220.5 C-217.23631683 219.71669312 -216.91013367 218.93338623 -216.57406616 218.12634277 C-210.63449026 203.86821674 -204.63067801 189.63768583 -198.61206055 175.41278076 C-192.37653784 160.67173118 -186.20416586 145.9053719 -180.0625 131.125 C-171.56999321 110.69022561 -162.94236315 90.31475866 -154.2578125 69.9609375 C-153.88665817 69.08974274 -153.51550385 68.21854797 -153.13310242 67.32095337 C-151.47320701 63.42899889 -149.8041567 59.54200346 -148.10058594 55.66894531 C-147.81537079 55.01673004 -147.53015564 54.36451477 -147.23629761 53.6925354 C-146.4923163 51.99450383 -145.74228372 50.299127 -144.99169922 48.60400391 C-143.8220497 45.99714643 -143.8220497 45.99714643 -144 43 C-143.34 43 -142.68 43 -142 43 C-141.60554687 41.75863281 -141.21109375 40.51726562 -140.8046875 39.23828125 C-138.86460708 33.43054931 -136.53209088 27.81488814 -134.125 22.1875 C-133.70347656 21.16462891 -133.28195312 20.14175781 -132.84765625 19.08789062 C-128.67116565 9.33635983 -123.54352365 6.41944762 -113.90234375 2.51171875 C-83.73840958 -9.27657155 -29.21107902 -19.4024569 0 0 Z M-13 120 C-12 122 -12 122 -12 122 Z M33 220 C34 222 34 222 34 222 Z M34 222 C35 224 35 224 35 224 Z M40 234 C41 236 41 236 41 236 Z " fill="#0057D0" transform="translate(562,293)"/>
<path d="M0 0 C1.8125 0 1.8125 0 4 1 C6.00227186 3.70815753 8 6.5467335 8 10 C8.66 10.33 9.32 10.66 10 11 C11.11447715 13.34040201 12.13631845 15.66937791 13.125 18.0625 C15.66893468 24.04550788 18.3479777 29.9317497 21.25 35.75 C21.74330811 36.74978882 21.74330811 36.74978882 22.24658203 37.76977539 C25.07370978 43.83682824 25.07370978 43.83682824 30 48 C29.67 48.99 29.34 49.98 29 51 C29.69202706 53.04282757 29.69202706 53.04282757 30.87109375 55.16015625 C31.28037109 55.95357422 31.68964844 56.74699219 32.11132812 57.56445312 C32.54896484 58.38880859 32.98660156 59.21316406 33.4375 60.0625 C34.29377458 61.69743734 35.14680645 63.33407841 35.99609375 64.97265625 C36.37950928 65.69718994 36.7629248 66.42172363 37.15795898 67.16821289 C38 69 38 69 38 71 C38.66 71.33 39.32 71.66 40 72 C40.88064575 73.60331726 40.88064575 73.60331726 41.78173828 75.70581055 C42.12510223 76.4922847 42.46846619 77.27875885 42.82223511 78.08906555 C43.19285065 78.95041611 43.56346619 79.81176666 43.9453125 80.69921875 C48.88711751 91.92916317 54.33645217 102.86764224 59.875 113.8125 C61.72956353 117.484171 63.58122045 121.1572872 65.4296875 124.83203125 C66.12502594 126.21432419 66.12502594 126.21432419 66.83441162 127.62454224 C70.03348138 134.00897245 73.13519308 140.43471573 76.1953125 146.88671875 C80.58245806 156.12677153 85.10491527 165.29335503 89.6875 174.4375 C90.02425877 175.10957174 90.36101753 175.78164349 90.70798111 176.47408104 C93.13578789 181.31749432 95.56747905 186.15895302 98 191 C100.77344236 196.51952687 103.54527244 202.03985424 106.3125 207.5625 C106.64617773 208.22835554 106.97985546 208.89421108 107.32364464 209.58024406 C112.58467285 220.08712938 117.71971454 230.64886295 122.74731445 241.26977539 C125.7565436 247.61756426 128.90640048 253.89286075 132.07333374 260.16305542 C133.60519393 263.19968511 135.12451756 266.24258574 136.64453125 269.28515625 C137.34935993 270.69539653 138.05419415 272.10563404 138.7590332 273.51586914 C139.12501617 274.24822784 139.49099915 274.98058655 139.86807251 275.73513794 C141.79691284 279.5945347 143.72663386 283.45349108 145.65625 287.3125 C146.4596395 288.91926879 147.26302489 290.52603964 148.06640625 292.1328125 C148.46746582 292.93493164 148.86852539 293.73705078 149.28173828 294.56347656 C152.01269531 300.02539062 154.74365234 305.48730469 157.47460938 310.94921875 C157.85926865 311.71844666 158.24392792 312.48767456 158.64024353 313.2802124 C159.67044392 315.34082127 160.70030066 317.40160195 161.72999573 319.46246338 C165.7725565 327.55229713 169.82355898 335.6378519 173.88087559 343.72029495 C177.47107676 350.8724456 181.05749111 358.0264897 184.64244747 365.1812706 C187.04184914 369.96955578 189.44277906 374.75706304 191.84692383 379.54296875 C194.1938315 384.21509513 196.53685318 388.88915107 198.87716866 393.56458282 C199.76528166 395.33711875 200.65480066 397.10895095 201.5457592 398.88005829 C202.78414094 401.34235099 204.01753137 403.80708252 205.24975586 406.27246094 C205.6169725 406.99970367 205.98418915 407.72694641 206.36253357 408.47622681 C207.93217008 411.6283897 209.2320657 414.56635188 210 418 C199.76884005 418.09265338 189.5377798 418.1637413 179.30628586 418.20724869 C174.55543964 418.22812944 169.80488031 418.2564559 165.05419922 418.30175781 C160.47006661 418.3451983 155.88621006 418.36913343 151.30188751 418.37950897 C149.55234684 418.38690359 147.80282138 418.40134355 146.05339813 418.42292023 C143.60395075 418.45193101 141.15564605 418.45595708 138.70605469 418.45410156 C137.98172745 418.46848267 137.25740021 418.48286377 136.51112366 418.49768066 C133.04585589 418.46925058 131.34333713 418.2854695 128.63691711 416.03520203 C127.82664314 415.02777702 127.82664314 415.02777702 127 414 C125.12977735 412.94008131 125.12977735 412.94008131 123.12109375 412.25390625 C122.3748877 411.97643555 121.62868164 411.69896484 120.85986328 411.41308594 C120.0604834 411.13239258 119.26110352 410.85169922 118.4375 410.5625 C117.59687012 410.2624707 116.75624023 409.96244141 115.89013672 409.65332031 C67.73751719 392.83982879 12.3459883 393.67581612 -35 413 C-37.66853533 414.33031944 -40.3002309 415.69967101 -42.90844727 417.14453125 C-45 418 -45 418 -48 417 C-31.39740119 396.0346745 -3.67952601 385.59494519 21.51049805 379.61108398 C24.10654171 379.00946197 24.10654171 379.00946197 27 378 C29.6719597 377.76268779 32.32267122 377.57518471 35 377.4375 C36.19290649 377.37598755 36.19290649 377.37598755 37.40991211 377.31323242 C63.28828007 376.08889588 88.89690236 377.74092838 113 388 C113.99 388.33 114.98 388.66 116 389 C115.49025635 387.96069336 114.9805127 386.92138672 114.45532227 385.85058594 C112.56358285 381.99098657 110.67690859 378.12892969 108.79174805 374.26611328 C107.97541862 372.59519152 107.15772047 370.92493771 106.33862305 369.25537109 C105.16093504 366.85428735 103.98820391 364.4508378 102.81640625 362.046875 C102.44971329 361.30193787 102.08302032 360.55700073 101.70521545 359.78948975 C101.3649382 359.08906555 101.02466095 358.38864136 100.67407227 357.66699219 C100.3742897 357.05410339 100.07450714 356.4412146 99.76564026 355.80975342 C99 354 99 354 98.52037048 351.83331299 C98.34864822 351.2283197 98.17692596 350.62332642 98 350 C97.34 349.67 96.68 349.34 96 349 C95.31023805 347.00784717 94.64974802 345.00556026 94 343 C92.7365161 340.08072234 91.35470007 337.22020502 89.97265625 334.35546875 C89.58307236 333.54507645 89.19348846 332.73468414 88.792099 331.8997345 C87.97127351 330.19689868 87.14836391 328.49506607 86.32348633 326.79418945 C85.06044163 324.18324497 83.81237157 321.56546669 82.56445312 318.94726562 C81.76393284 317.2912255 80.96253128 315.63561102 80.16015625 313.98046875 C79.60220116 312.80244942 79.60220116 312.80244942 79.03297424 311.60063171 C78.09828546 309.6944074 77.05733595 307.84102551 76 306 C75.01 305.67 74.02 305.34 73 305 C73.33 304.01 73.66 303.02 74 302 C72.95041073 298.98309137 72.95041073 298.98309137 71.32421875 295.65234375 C71.03899857 295.03984268 70.75377838 294.42734161 70.45991516 293.79627991 C69.85494422 292.50222867 69.24521189 291.21039432 68.63110352 289.9206543 C67.69164457 287.94621057 66.76752988 285.96514938 65.84570312 283.98242188 C63.09583257 277.54449333 63.09583257 277.54449333 59 272 C58.63199913 270.67581563 58.3019847 269.34078116 58 268 C57.48380674 266.68599264 56.93637292 265.38395803 56.36328125 264.09375 C56.03585937 263.35495605 55.7084375 262.61616211 55.37109375 261.85498047 C55.02175781 261.07783691 54.67242188 260.30069336 54.3125 259.5 C53.95671875 258.70352051 53.6009375 257.90704102 53.234375 257.08642578 C50.33060122 250.63229419 47.25383515 244.28581789 44 238 C43.34 238 42.68 238 42 238 C40.9375 236.1875 40.9375 236.1875 40 234 C40.33 233.01 40.66 232.02 41 231 C40.12516085 228.83284443 40.12516085 228.83284443 39 227 C38.34 227.33 37.68 227.66 37 228 C35.05527633 224.61787189 33.84438489 221.79900719 33.5 217.9375 C33.00339591 214.02674277 32.36330405 212.09047453 30 209 C28.515 208.01 28.515 208.01 27 207 C27.1969043 206.42330566 27.39380859 205.84661133 27.59667969 205.25244141 C28.0847933 202.52645097 27.62703703 201.44004661 26.453125 198.9609375 C25.9271875 197.84332031 25.9271875 197.84332031 25.390625 196.703125 C25.01421875 195.93484375 24.6378125 195.1665625 24.25 194.375 C23.70859375 193.21097656 23.70859375 193.21097656 23.15625 192.0234375 C20.95838678 187.3223558 20.95838678 187.3223558 17 184 C16.78000034 182.36481026 16.567209 180.72826423 16.39453125 179.08740234 C15.59675024 174.86646942 13.41163272 171.12509984 11.5 167.3125 C10.59014206 165.46076663 9.68265143 163.60786848 8.77734375 161.75390625 C8.31569824 160.80918457 7.85405273 159.86446289 7.37841797 158.89111328 C6.0099325 156.02083257 4.71316688 153.12915081 3.44140625 150.21484375 C3.04050781 149.29727295 2.63960937 148.37970215 2.2265625 147.43432617 C1.46192156 145.67106544 0.70514842 143.90436789 -0.04296875 142.1340332 C-0.3884375 141.342146 -0.73390625 140.55025879 -1.08984375 139.734375 C-1.38753662 139.03538086 -1.68522949 138.33638672 -1.99194336 137.61621094 C-2.97774343 135.65320029 -2.97774343 135.65320029 -6 135 C-6.19916016 133.95199219 -6.19916016 133.95199219 -6.40234375 132.8828125 C-6.57894531 131.97273437 -6.75554688 131.06265625 -6.9375 130.125 C-7.11152344 129.22007812 -7.28554688 128.31515625 -7.46484375 127.3828125 C-7.89963701 125.00043683 -7.89963701 125.00043683 -9 123 C-9.99 122.67 -10.98 122.34 -12 122 C-12.0825 121.030625 -12.165 120.06125 -12.25 119.0625 C-12.8076303 114.98430822 -14.37901378 111.60068681 -16.16015625 107.91796875 C-17 106 -17 106 -17 104 C-17.66 103.67 -18.32 103.34 -19 103 C-19.74609375 101.1796875 -19.74609375 101.1796875 -20.4375 98.875 C-21.31515092 95.97624438 -22.23081007 93.56867015 -23.67034912 90.87850952 C-25.62133532 86.3165687 -24.53666683 82.92982484 -23.15332031 78.32666016 C-22.92127899 77.48843719 -22.68923767 76.65021423 -22.45016479 75.78659058 C-21.68131135 73.03073061 -20.88021702 70.28541446 -20.078125 67.5390625 C-19.5362369 65.62386094 -18.99628592 63.70811032 -18.45819092 61.7918396 C-17.03887668 56.75898282 -15.59155374 51.73459142 -14.13879395 46.71130371 C-12.95409602 42.5974845 -11.78913156 38.47820428 -10.62520218 34.35846901 C-8.22539278 25.86549015 -5.8130736 17.37595992 -3.36425781 8.89697266 C-3.13872223 8.10740173 -2.91318665 7.31783081 -2.68081665 6.5043335 C-1.11553265 1.11553265 -1.11553265 1.11553265 0 0 Z M-11 119 C-10 121 -10 121 -10 121 Z M35 219 C36 221 36 221 36 221 Z M36 221 C37 223 37 223 37 223 Z M42 233 C43 235 43 235 43 235 Z " fill="#FAFBFC" transform="translate(560,294)"/>
<path d="M0 0 C0.71607422 0.47453613 1.43214844 0.94907227 2.16992188 1.43798828 C5.99866236 3.88344683 9.99822053 6.00501494 13.98413086 8.18139648 C22.6569199 12.93228755 31.24168262 17.8179947 39.5703125 23.15234375 C44.15810547 25.93568344 48.88564441 28.45213453 53.609375 30.99609375 C54.60163086 31.53057129 55.59388672 32.06504883 56.61621094 32.61572266 C57.61813477 33.15503418 58.62005859 33.6943457 59.65234375 34.25 C60.66361328 34.79462891 61.67488281 35.33925781 62.71679688 35.90039062 C64.78089902 37.01162888 66.84601519 38.12098552 68.91210938 39.22851562 C74.052883 42.00117856 79.09657967 44.82599146 83.98168945 48.03100586 C85.76352622 49.16516082 85.76352622 49.16516082 88.609375 49.99609375 C90.08566973 50.8332598 91.54311701 51.70392224 92.98828125 52.59375 C99.11278447 56.31674789 105.32227879 59.88105991 111.546875 63.43359375 C112.14299591 63.77392639 112.73911682 64.11425903 113.353302 64.46490479 C122.13772872 69.47738449 130.9413062 74.45550198 139.77420044 79.3821106 C141.5137283 80.35260106 143.25187333 81.32556881 144.98999023 82.29858398 C146.04903564 82.88712158 147.10808105 83.47565918 148.19921875 84.08203125 C149.12597412 84.59813965 150.05272949 85.11424805 151.00756836 85.64599609 C153.59199786 87.04262763 153.59199786 87.04262763 156.35375977 88.08447266 C158.78076498 89.06536209 159.78607305 90.1727918 161.609375 91.99609375 C164.20853038 93.18637359 164.20853038 93.18637359 166.609375 93.99609375 C165.609375 96.99609375 165.609375 96.99609375 162.51953125 98.8203125 C161.2420387 99.45174743 159.9592043 100.07246319 158.671875 100.68359375 C158.02541016 101.00392578 157.37894531 101.32425781 156.71289062 101.65429688 C151.90446762 103.99609375 151.90446762 103.99609375 149.609375 103.99609375 C149.609375 127.75609375 149.609375 151.51609375 149.609375 175.99609375 C150.929375 176.65609375 152.249375 177.31609375 153.609375 177.99609375 C156.62538679 182.52011143 157.48186007 186.68578339 156.609375 191.99609375 C156.0525 192.92421875 155.495625 193.85234375 154.921875 194.80859375 C153.40142901 198.50110544 153.71246935 199.25228721 154.83203125 202.9453125 C155.11812256 203.92201904 155.40421387 204.89872559 155.69897461 205.9050293 C155.99940674 206.92508057 156.29983887 207.94513184 156.609375 208.99609375 C157.14095511 210.99394495 157.66443605 212.99396919 158.1796875 214.99609375 C158.56447266 216.47916016 158.56447266 216.47916016 158.95703125 217.9921875 C159.48333001 220.02597516 160.00936392 222.05983136 160.53515625 224.09375 C160.78910156 225.07214844 161.04304688 226.05054688 161.3046875 227.05859375 C161.53172363 227.93644531 161.75875977 228.81429687 161.99267578 229.71875 C162.4735712 231.49459815 163.02757632 233.25069771 163.609375 234.99609375 C162.609375 235.99609375 162.609375 235.99609375 159.09936523 236.10961914 C157.53889078 236.10946001 155.97841107 236.10376517 154.41796875 236.09375 C153.59813004 236.09233505 152.77829132 236.0909201 151.93360901 236.08946228 C149.30466118 236.08384664 146.67579727 236.07129154 144.046875 236.05859375 C142.26888143 236.05358076 140.49088654 236.04901751 138.71289062 236.04492188 C134.34501955 236.03387214 129.97721152 236.01659706 125.609375 235.99609375 C125.609375 232.40155672 126.51697709 229.68530135 127.578125 226.24609375 C127.7778894 225.59157227 127.97765381 224.93705078 128.18347168 224.26269531 C129.03752393 221.46488619 129.90130666 218.67010485 130.76416016 215.875 C131.39300314 213.83304274 132.0169249 211.78962658 132.640625 209.74609375 C133.01767578 208.5240625 133.39472656 207.30203125 133.78320312 206.04296875 C134.74022683 203.03966934 134.74022683 203.03966934 134.609375 199.99609375 C135.269375 199.99609375 135.929375 199.99609375 136.609375 199.99609375 C136.34261296 198.01117733 136.34261296 198.01117733 135.609375 195.99609375 C134.619375 195.66609375 133.629375 195.33609375 132.609375 194.99609375 C131.88600588 182.57825725 131.88600588 182.57825725 136.609375 176.99609375 C137.67646542 173.79482249 137.76610703 171.42251752 137.81469727 168.0559082 C137.83464249 166.83486893 137.85458771 165.61382965 137.87513733 164.35578918 C137.89184982 163.0369725 137.90856232 161.71815582 137.92578125 160.359375 C137.9463576 158.99602131 137.96735425 157.6326739 137.98875427 156.26933289 C138.0439047 152.68387953 138.09334487 149.09836927 138.14160156 145.51281738 C138.19186799 141.85289455 138.24752719 138.19305418 138.30273438 134.53320312 C138.41022994 127.35423654 138.5116939 120.1752013 138.609375 112.99609375 C135.37806028 112.01294381 135.37806028 112.01294381 132.12329102 112.95239258 C131.21248779 113.44763428 130.30168457 113.94287598 129.36328125 114.453125 C128.36103516 114.98873047 127.35878906 115.52433594 126.32617188 116.07617188 C125.28525391 116.64787109 124.24433594 117.21957031 123.171875 117.80859375 C121.11174199 118.92124483 119.05057881 120.03199105 116.98828125 121.140625 C115.62038452 121.88856323 115.62038452 121.88856323 114.22485352 122.65161133 C111.73039673 123.93388273 109.22989225 125.00116646 106.609375 125.99609375 C106.609375 126.98609375 106.609375 127.97609375 106.609375 128.99609375 C104.629375 128.99609375 102.649375 128.99609375 100.609375 128.99609375 C100.279375 129.98609375 99.949375 130.97609375 99.609375 131.99609375 C98.619375 131.99609375 97.629375 131.99609375 96.609375 131.99609375 C94.81520499 132.85702192 94.81520499 132.85702192 93.046875 133.99609375 C89.609375 135.99609375 89.609375 135.99609375 87.609375 135.99609375 C86.65500105 128.7530772 86.60999715 121.71372978 86.8671875 114.4140625 C86.58306699 110.64731326 85.91435429 108.95079874 83.609375 105.99609375 C54.26203178 81.02984675 5.93929163 77.03226003 -30.53417969 79.94458008 C-54.11311618 82.0775999 -89.69252159 88.86247019 -107.390625 105.99609375 C-112.18724473 115.18006531 -110.68509984 126.12572313 -109.390625 135.99609375 C-117.89168423 131.79832933 -126.33535189 127.51672698 -134.703125 123.05859375 C-140.93639731 119.73993881 -147.22594572 116.63475178 -153.640625 113.68359375 C-164.93001635 108.47365821 -175.64502925 102.23355477 -186.390625 95.99609375 C-186.390625 95.33609375 -186.390625 94.67609375 -186.390625 93.99609375 C-183.85061091 92.57368586 -181.31058472 91.15129963 -178.77050781 89.72900391 C-176.53398038 88.47643003 -174.29765659 87.22349247 -172.06152344 85.97021484 C-166.25280204 82.71501338 -160.44096607 79.46571562 -154.62109375 76.23046875 C-144.99551745 70.87311436 -135.41098292 65.52090567 -126.0859375 59.65234375 C-122.53438188 57.46993856 -118.87500781 55.52185989 -115.19921875 53.55859375 C-112.04792213 51.80543847 -109.00712196 49.91346639 -105.953125 47.99609375 C-102.00481738 45.53936901 -98.07623713 43.27042963 -93.890625 41.24609375 C-85.41715212 37.12627119 -77.32954434 32.30919464 -69.17382812 27.6015625 C-64.68932922 25.01471471 -60.19706628 22.44149513 -55.703125 19.87109375 C-54.39867432 19.12484741 -54.39867432 19.12484741 -53.06787109 18.36352539 C-46.69447466 14.7243984 -40.31814985 11.08456806 -33.85131836 7.61328125 C-30.16180086 5.62032517 -26.68243952 3.54551673 -23.27734375 1.09375 C-14.38384369 -5.11121804 -9.34696081 -5.95695878 0 0 Z " fill="#0184F0" transform="translate(523.390625,191.00390625)"/>
<path d="M0 0 C0.495 1.98 0.495 1.98 1 4 C2.010625 3.9175 3.02125 3.835 4.0625 3.75 C21.71728361 3.78113718 42.49682708 13.13596714 56 24 C56.79277344 24.6084375 57.58554687 25.216875 58.40234375 25.84375 C74.27937564 38.17352515 83.90015132 51.04021037 88 71 C87.01 71.33 86.02 71.66 85 72 C84.319375 71.05125 83.63875 70.1025 82.9375 69.125 C63.25552663 46.36197005 23.96798463 36.98325361 -4.4921875 34.47265625 C-22.89526901 33.15978133 -41.00463359 35.13280092 -59 39 C-58.38377983 36.08042476 -57.47148283 33.81031236 -55.9609375 31.2421875 C-55.34327515 30.18680786 -55.34327515 30.18680786 -54.71313477 29.11010742 C-52.90289726 26.08643942 -51.08638864 23.06703676 -49.24853516 20.06005859 C-48.19549748 18.32256703 -47.17759178 16.56385431 -46.16796875 14.80078125 C-42.56730828 8.93985217 -39.22715273 6.49206017 -32.6015625 4.5390625 C-29.66748537 3.93110057 -26.98596637 3.67719282 -24 4 C-23.67 3.34 -23.34 2.68 -23 2 C-22.34 1.67 -21.68 1.34 -21 1 C-21 1.66 -21 2.32 -21 3 C-19.06183265 2.8858134 -17.12444901 2.75826577 -15.1875 2.625 C-14.10855469 2.55539062 -13.02960938 2.48578125 -11.91796875 2.4140625 C-7.33042801 1.76308617 -4.9472592 -0.21987819 0 0 Z M-7 2 C-7 2.33 -7 2.66 -7 3 C-4.69 3 -2.38 3 0 3 C0 2.67 0 2.34 0 2 C-2.31 2 -4.62 2 -7 2 Z " fill="#DDE8F4" transform="translate(424,625)"/>
<path d="M0 0 C0.99 0.495 0.99 0.495 2 1 C3.35120865 1.23843806 4.70955596 1.43732907 6.0703125 1.61328125 C6.885 1.72736328 7.6996875 1.84144531 8.5390625 1.95898438 C10.23846123 2.19130399 11.93899215 2.41551298 13.640625 2.63085938 C19.22452029 3.43168448 24.56293961 4.31737948 29 8 C31.69057379 11.60221644 33.74683716 15.45178258 35.8125 19.4375 C36.92316705 21.49870332 38.0338438 23.55990142 39.14453125 25.62109375 C39.86153198 26.98899048 39.86153198 26.98899048 40.59301758 28.38452148 C41.98614054 30.97423627 43.46748217 33.49072501 45 36 C44.01 36.99 44.01 36.99 43 38 C42.12730469 37.69191406 41.25460937 37.38382813 40.35546875 37.06640625 C31.79377781 34.34540319 22.79736798 33.81415585 13.875 33.3125 C13.04524658 33.26407959 12.21549316 33.21565918 11.3605957 33.16577148 C7.9413653 32.99976205 5.2762818 32.90790607 2 34 C2 33.34 2 32.68 2 32 C-34.59053182 35.85912292 -69.58569663 43.5435122 -97.22265625 69.53125 C-99 71 -99 71 -101 71 C-100.09601587 55.33094183 -90.09089523 41.54416096 -79 31 C-78.34 31 -77.68 31 -77 31 C-76.67 30.01 -76.34 29.02 -76 28 C-74.07637217 26.32963978 -72.19346766 24.84653688 -70.125 23.375 C-69.5172876 22.94131104 -68.9095752 22.50762207 -68.28344727 22.06079102 C-59.66207829 16.13809853 -48.53037947 9.37721261 -38 8 C-38 7.34 -38 6.68 -38 6 C-36.86433594 5.8659375 -35.72867188 5.731875 -34.55859375 5.59375 C-29.27556792 4.93351707 -24.04278002 4.01942758 -18.79882812 3.10546875 C-14.91540825 2.44203723 -11.03004641 1.83721277 -7.12109375 1.34375 C-6.40236084 1.25287109 -5.68362793 1.16199219 -4.94311523 1.06835938 C-3 1 -3 1 0 2 C0 1.34 0 0.68 0 0 Z " fill="#E0EBF5" transform="translate(614,626)"/>
<path d="M0 0 C26.82684313 -0.63128122 51.08624133 3.61988205 75.81274414 14.22998047 C79.42279002 15.77811641 82.91308462 17.20871281 86.75292969 18.06201172 C86.75292969 18.72201172 86.75292969 19.38201172 86.75292969 20.06201172 C88.29580853 21.10375865 89.89093295 22.06828762 91.50292969 22.99951172 C96.21824075 25.91209007 100.35325527 29.09701378 104.44042969 32.81201172 C104.96926758 33.28372803 105.49810547 33.75544434 106.04296875 34.24145508 C107.34340391 35.44977249 108.55644514 36.75068136 109.75292969 38.06201172 C109.75292969 39.05201172 109.75292969 40.04201172 109.75292969 41.06201172 C108.81332397 40.65474854 108.81332397 40.65474854 107.85473633 40.23925781 C51.27102763 15.98396463 -8.81253341 15.93447083 -66.60888672 36.14501953 C-70.47557835 37.48902229 -74.35981564 38.77891045 -78.24707031 40.06201172 C-76.47259479 36.3060134 -74.12074377 33.32813355 -71.43457031 30.18701172 C-70.5825 29.17896484 -69.73042969 28.17091797 -68.85253906 27.13232422 C-68.41973633 26.62693115 -67.98693359 26.12153809 -67.54101562 25.60083008 C-66.26111422 24.07871337 -65.03286025 22.51365105 -63.80566406 20.94873047 C-61.12758363 17.92720155 -58.50656712 15.93374212 -55.12207031 13.74951172 C-54.08824219 13.07275391 -53.05441406 12.39599609 -51.98925781 11.69873047 C-49.24707031 10.06201172 -49.24707031 10.06201172 -46.24707031 9.06201172 C-45.59996094 8.78744141 -44.95285156 8.51287109 -44.28613281 8.22998047 C-30.52156665 2.63951751 -14.7817365 0.4079271 0 0 Z " fill="#0459D3" transform="translate(401.2470703125,670.93798828125)"/>
<path d="M0 0 C0.99644531 0.32742188 1.99289062 0.65484375 3.01953125 0.9921875 C7.64997477 4.11151643 9.16704748 8.55625116 11.375 13.5625 C12.04982422 15.01946289 12.04982422 15.01946289 12.73828125 16.50585938 C16 23.63901026 16 23.63901026 16 26 C10.33609125 24.36079817 4.75463059 22.56859075 -0.8125 20.625 C-47.80064631 4.63940478 -102.02371198 6.23485694 -148 25 C-150.66853533 26.33031944 -153.3002309 27.69967101 -155.90844727 29.14453125 C-158 30 -158 30 -161 29 C-144.39740119 8.0346745 -116.67952601 -2.40505481 -91.48950195 -8.38891602 C-88.89345829 -8.99053803 -88.89345829 -8.99053803 -86 -10 C-83.3280403 -10.23731221 -80.67732878 -10.42481529 -78 -10.5625 C-76.80709351 -10.62401245 -76.80709351 -10.62401245 -75.59008789 -10.68676758 C-50.05096792 -11.89505389 -23.66301796 -10.67680726 0 0 Z " fill="#0568E1" transform="translate(673,682)"/>
<path d="M0 0 C0 0.66 0 1.32 0 2 C0.71542969 1.96519531 1.43085938 1.93039062 2.16796875 1.89453125 C10.19021868 1.67659173 17.27059746 2.90558125 25 5 C25 4.34 25 3.68 25 3 C25.99 3 26.98 3 28 3 C28.495 4.485 28.495 4.485 29 6 C30.65 6 32.3 6 34 6 C34.495 6.99 34.495 6.99 35 8 C36.67792099 8.74292854 38.36074464 9.47661437 40.06567383 10.15527344 C60.91040259 18.45383074 76.96025586 33.2586996 86.375 53.8125 C88.90205252 60.55503394 89.32870239 67.88071219 90 75 C89.34 75 88.68 75 88 75 C88 74.34 88 73.68 88 73 C87.34 73 86.68 73 86 73 C85.34 71.35 84.68 69.7 84 68 C83.34 68 82.68 68 82 68 C81.38125 67.21625 80.7625 66.4325 80.125 65.625 C78.26897191 62.96206806 78.26897191 62.96206806 76 62 C74 61 74 61 72.265625 58.70703125 C62.67429751 47.24704858 44.01009686 40.15172235 30.1875 35.375 C29.03072754 34.96664917 29.03072754 34.96664917 27.85058594 34.55004883 C25.44522698 33.72601194 25.44522698 33.72601194 22 33 C21.01 33.66 20.02 34.32 19 35 C16.3125 34.625 16.3125 34.625 14 34 C13.67 33.01 13.34 32.02 13 31 C1.7187529 28.84421438 -9.54650524 28.39959718 -21 28 C-19.89277605 22.47352227 -16.80192195 17.77119682 -14.125 12.875 C-13.58230469 11.86050781 -13.03960937 10.84601562 -12.48046875 9.80078125 C-11.95324219 8.83269531 -11.42601562 7.86460937 -10.8828125 6.8671875 C-10.40215332 5.98144043 -9.92149414 5.09569336 -9.42626953 4.18310547 C-6.82994466 0.20906627 -4.47971052 -0.24214651 0 0 Z " fill="#E4EDF5" transform="translate(420,589)"/>
<path d="M0 0 C5.55214431 2.04861729 7.16192657 6.9419958 9.69921875 12.0390625 C10.23160156 13.05033203 10.76398438 14.06160156 11.3125 15.10351562 C15.48007284 23.12582823 15.48007284 23.12582823 16.32421875 27.2265625 C15.65592041 27.24114502 14.98762207 27.25572754 14.29907227 27.27075195 C-12.79684347 27.9285665 -37.78567295 31.66657519 -61.67578125 45.2265625 C-62.65804687 45.78085937 -63.6403125 46.33515625 -64.65234375 46.90625 C-76.65312917 54.13438877 -86.605505 63.6411611 -95.67578125 74.2265625 C-96.33578125 73.8965625 -96.99578125 73.5665625 -97.67578125 73.2265625 C-95.29306848 60.13132809 -91.6126859 48.98547769 -83.67578125 38.2265625 C-83.16402344 37.48792969 -82.65226563 36.74929688 -82.125 35.98828125 C-71.82922745 21.76094878 -55.14369905 11.80890752 -38.67578125 6.2265625 C-37.68578125 6.2265625 -36.69578125 6.2265625 -35.67578125 6.2265625 C-35.34578125 5.5665625 -35.01578125 4.9065625 -34.67578125 4.2265625 C-27.65563538 2.30469747 -20.08910682 1.86326918 -12.86328125 1.0390625 C-12.0635791 0.94302734 -11.26387695 0.84699219 -10.43994141 0.74804688 C-6.96664026 0.37505553 -3.48629618 0.21488329 0 0 Z " fill="#E8F0F7" transform="translate(611.67578125,589.7734375)"/>
<path d="M0 0 C2.31 0 4.62 0 7 0 C7.33 0.66 7.66 1.32 8 2 C5.36 1.67 2.72 1.34 0 1 C0 0.67 0 0.34 0 0 Z " fill="#A9C7E8" transform="translate(591,661)"/>
<path d="M0 0 C1.98 0.66 3.96 1.32 6 2 C5.01 2.33 4.02 2.66 3 3 C2.01 2.01 1.02 1.02 0 0 Z " fill="#E4EDF3" transform="translate(475,637)"/>
<path d="M0 0 C0.66 0 1.32 0 2 0 C2.66 1.65 3.32 3.3 4 5 C3.34 5 2.68 5 2 5 C1.34 3.35 0.68 1.7 0 0 Z " fill="#E8EFF4" transform="translate(642,617)"/>
<path d="M0 0 C0 0.66 0 1.32 0 2 C-1.98 2 -3.96 2 -6 2 C-2.25 0 -2.25 0 0 0 Z " fill="#E7EEF4" transform="translate(606,588)"/>
<path d="M0 0 C1.98 0.495 1.98 0.495 4 1 C4 1.33 4 1.66 4 2 C2.35 2 0.7 2 -1 2 C-0.67 1.34 -0.34 0.68 0 0 Z " fill="#CFDBE8" transform="translate(410,625)"/>
<path d="M0 0 C1.32 0 2.64 0 4 0 C4 0.66 4 1.32 4 2 C2.68 1.67 1.36 1.34 0 1 C0 0.67 0 0.34 0 0 Z " fill="#E9F1F6" transform="translate(586,621)"/>
<path d="M0 0 C1.98 0 3.96 0 6 0 C6 0.33 6 0.66 6 1 C4.02 1 2.04 1 0 1 C0 0.67 0 0.34 0 0 Z " fill="#A3C1E4" transform="translate(624,660)"/>
<path d="M0 0 C0.33 1.32 0.66 2.64 1 4 C0.34 3.67 -0.32 3.34 -1 3 C-0.67 2.01 -0.34 1.02 0 0 Z " fill="#CAD8E6" transform="translate(513,658)"/>
<path d="M0 0 C0.66 1.32 1.32 2.64 2 4 C1.34 4 0.68 4 0 4 C0 2.68 0 1.36 0 0 Z " fill="#E2EBF2" transform="translate(603,532)"/>
<path d="M0 0 C0.66 0.66 1.32 1.32 2 2 C1.67 2.99 1.34 3.98 1 5 C0.67 3.35 0.34 1.7 0 0 Z " fill="#D9E4ED" transform="translate(562,443)"/>
<path d="M0 0 C1.65 0 3.3 0 5 0 C5 0.33 5 0.66 5 1 C3.35 1 1.7 1 0 1 C0 0.67 0 0.34 0 0 Z " fill="#D1D6DC" transform="translate(732,713)"/>
<path d="M0 0 C1.65 0 3.3 0 5 0 C5 0.33 5 0.66 5 1 C3.35 1 1.7 1 0 1 C0 0.67 0 0.34 0 0 Z " fill="#9BBBE2" transform="translate(424,661)"/>
<path d="M0 0 C0.66 0.99 1.32 1.98 2 3 C1.01 2.67 0.02 2.34 -1 2 C-0.67 1.34 -0.34 0.68 0 0 Z " fill="#ECF1F4" transform="translate(626,581)"/>
<path d="M0 0 C0.99 0.495 0.99 0.495 2 1 C1.67 1.99 1.34 2.98 1 4 C0.67 2.68 0.34 1.36 0 0 Z " fill="#D6E3EE" transform="translate(579,481)"/>
<path d="M0 0 C0.99 0.495 0.99 0.495 2 1 C1.67 1.99 1.34 2.98 1 4 C0.67 2.68 0.34 1.36 0 0 Z " fill="#D0E3F2" transform="translate(604,373)"/>
<path d="M0 0 C1.485 0.99 1.485 0.99 3 2 C2.01 2.33 1.02 2.66 0 3 C0 2.01 0 1.02 0 0 Z " fill="#0177D0" transform="translate(466,208)"/>
<path d="M0 0 C0.99 0 1.98 0 3 0 C2.67 0.66 2.34 1.32 2 2 C1.34 1.34 0.68 0.68 0 0 Z " fill="#1560C0" transform="translate(579,694)"/>
<path d="M0 0 C4 1 4 1 4 1 Z " fill="#9EC0E5" transform="translate(433,662)"/>
<path d="M0 0 C0.99 0.33 1.98 0.66 3 1 C2.01 1 1.02 1 0 1 C0 0.67 0 0.34 0 0 Z " fill="#DDE1E5" transform="translate(741,650)"/>
<path d="M0 0 C4 1 4 1 4 1 Z " fill="#EDF2F6" transform="translate(580,623)"/>
<path d="M0 0 C0.66 0.33 1.32 0.66 2 1 C1.01 1 0.02 1 -1 1 C-0.67 0.67 -0.34 0.34 0 0 Z " fill="#D6E2ED" transform="translate(420,623)"/>
<path d="M0 0 C4 1 4 1 4 1 Z " fill="#EAF0F6" transform="translate(594,620)"/>
<path d="M0 0 C0.99 0.33 1.98 0.66 3 1 C2.01 1 1.02 1 0 1 C0 0.67 0 0.34 0 0 Z " fill="#D8E3EE" transform="translate(424,619)"/>
<path d="M0 0 C0.33 0.66 0.66 1.32 1 2 C0.01 1.67 -0.98 1.34 -2 1 C-1.34 0.67 -0.68 0.34 0 0 Z " fill="#D1E1EE" transform="translate(581,485)"/>
<path d="M0 0 C0.33 0.66 0.66 1.32 1 2 C0.34 1.67 -0.32 1.34 -1 1 C-0.67 0.67 -0.34 0.34 0 0 Z " fill="#5A84BE" transform="translate(681,710)"/>
<path d="M0 0 C3 1 3 1 3 1 Z " fill="#125AB5" transform="translate(482,702)"/>
<path d="M0 0 C3 1 3 1 3 1 Z " fill="#296CBF" transform="translate(664,701)"/>
<path d="M0 0 C0.66 0 1.32 0 2 0 C1.67 0.66 1.34 1.32 1 2 C0.67 1.34 0.34 0.68 0 0 Z " fill="#1059B9" transform="translate(443,694)"/>
<path d="M0 0 C3 1 3 1 3 1 Z " fill="#1565C5" transform="translate(587,693)"/>
<path d="M0 0 C3 1 3 1 3 1 Z " fill="#105CBC" transform="translate(433,693)"/>
<path d="" fill="#6193CF" transform="translate(0,0)"/>
<path d="M0 0 C3 1 3 1 3 1 Z " fill="#5494DE" transform="translate(440,672)"/>
<path d="M0 0 C3 1 3 1 3 1 Z " fill="#3276CA" transform="translate(377,672)"/>
<path d="M0 0 C3 1 3 1 3 1 Z " fill="#99BBE4" transform="translate(561,669)"/>
<path d="M0 0 C0.66 0 1.32 0 2 0 C1.67 0.66 1.34 1.32 1 2 C0.67 1.34 0.34 0.68 0 0 Z " fill="#D8E4ED" transform="translate(497,653)"/>
<path d="M0 0 C3 1 3 1 3 1 Z " fill="#E2EBF4" transform="translate(467,640)"/>
<path d="M0 0 C3 1 3 1 3 1 Z " fill="#ECF2F7" transform="translate(584,629)"/>
<path d="M0 0 C0.66 0.66 1.32 1.32 2 2 C1.34 2 0.68 2 0 2 C0 1.34 0 0.68 0 0 Z " fill="#E9F0F7" transform="translate(604,625)"/>
<path d="M0 0 C3 1 3 1 3 1 Z " fill="#E0E9F1" transform="translate(443,623)"/>
<path d="M0 0 C0.66 0.66 1.32 1.32 2 2 C1.34 2 0.68 2 0 2 C0 1.34 0 0.68 0 0 Z " fill="#E1EAEF" transform="translate(577,592)"/>
<path d="M0 0 C3 1 3 1 3 1 Z " fill="#96B0CF" transform="translate(421,589)"/>
<path d="M0 0 C0.66 0.66 1.32 1.32 2 2 C1.34 2 0.68 2 0 2 C0 1.34 0 0.68 0 0 Z " fill="#084AB4" transform="translate(438,498)"/>
<path d="M0 0 C0.66 0 1.32 0 2 0 C1.67 0.66 1.34 1.32 1 2 C0.67 1.34 0.34 0.68 0 0 Z " fill="#CAD9E6" transform="translate(546,411)"/>
<path d="" fill="#0C71CE" transform="translate(0,0)"/>
<path d="M0 0 C3 1 3 1 3 1 Z " fill="#0887E7" transform="translate(465,288)"/>
<path d="M0 0 C0.66 0 1.32 0 2 0 C1.67 0.66 1.34 1.32 1 2 C0.67 1.34 0.34 0.68 0 0 Z " fill="#097EE3" transform="translate(458,288)"/>
<path d="M0 0 C3 1 3 1 3 1 Z " fill="#128CE5" transform="translate(560,277)"/>
<path d="M0 0 C3 1 3 1 3 1 Z " fill="#037FD8" transform="translate(625,248)"/>
<path d="M0 0 C0.99 0.495 0.99 0.495 2 1 C1.01 1.495 1.01 1.495 0 2 C0 1.34 0 0.68 0 0 Z " fill="#025EC4" transform="translate(423,233)"/>
<path d="M0 0 C2 1 2 1 2 1 Z " fill="#BBC0C5" transform="translate(758,713)"/>
<path d="M0 0 C2 1 2 1 2 1 Z " fill="#CED1D6" transform="translate(748,713)"/>
<path d="M0 0 C2 1 2 1 2 1 Z " fill="#D0D6DD" transform="translate(719,713)"/>
<path d="M0 0 C2 1 2 1 2 1 Z " fill="#CBD1DB" transform="translate(711,713)"/>
<path d="" fill="#2E70C3" transform="translate(0,0)"/>
<path d="M0 0 C2 1 2 1 2 1 Z " fill="#1563C3" transform="translate(627,694)"/>
<path d="M0 0 C2 1 2 1 2 1 Z " fill="#125AB8" transform="translate(440,694)"/>
<path d="" fill="#0E58B7" transform="translate(0,0)"/>
<path d="M0 0 C2 1 2 1 2 1 Z " fill="#1666C6" transform="translate(593,693)"/>
<path d="M0 0 C2 1 2 1 2 1 Z " fill="#4F91D6" transform="translate(470,680)"/>
<path d="M0 0 C2 1 2 1 2 1 Z " fill="#69A1E1" transform="translate(561,675)"/>
<path d="M0 0 C2 1 2 1 2 1 Z " fill="#5190D9" transform="translate(642,672)"/>
<path d="M0 0 C2 1 2 1 2 1 Z " fill="#5C9CE2" transform="translate(581,672)"/>
<path d="" fill="#ADC6E3" transform="translate(0,0)"/>
<path d="" fill="#91B5E2" transform="translate(0,0)"/>
<path d="" fill="#042A86" transform="translate(0,0)"/>
<path d="M0 0 C2 1 2 1 2 1 Z " fill="#B9CCDD" transform="translate(517,663)"/>
<path d="M0 0 C2 1 2 1 2 1 Z " fill="#90B3E0" transform="translate(644,662)"/>
<path d="M0 0 C2 1 2 1 2 1 Z " fill="#AAC8E9" transform="translate(588,662)"/>
<path d="M0 0 C2 1 2 1 2 1 Z " fill="#ABC7E7" transform="translate(604,660)"/>
<path d="M0 0 C2 1 2 1 2 1 Z " fill="#9BBAE0" transform="translate(412,660)"/>
<path d="M0 0 C2 1 2 1 2 1 Z " fill="#94B5DD" transform="translate(404,660)"/>
<path d="" fill="#D2DFEA" transform="translate(0,0)"/>
<path d="M0 0 C2 1 2 1 2 1 Z " fill="#D4DFED" transform="translate(659,653)"/>
<path d="" fill="#DDE8F1" transform="translate(0,0)"/>
<path d="M0 0 C2 1 2 1 2 1 Z " fill="#E2EBF3" transform="translate(476,644)"/>
<path d="M0 0 C2 1 2 1 2 1 Z " fill="#E3ECF3" transform="translate(478,642)"/>
<path d="M0 0 C2 1 2 1 2 1 Z " fill="#E7F0F5" transform="translate(556,640)"/>
<path d="M0 0 C2 1 2 1 2 1 Z " fill="#E3EAF2" transform="translate(652,638)"/>
<path d="M0 0 C2 1 2 1 2 1 Z " fill="#E9F0F7" transform="translate(561,637)"/>
<path d="" fill="#DFE4E7" transform="translate(0,0)"/>
<path d="M0 0 C2 1 2 1 2 1 Z " fill="#EAF1F6" transform="translate(571,633)"/>
<path d="M0 0 C2 1 2 1 2 1 Z " fill="#E6EEF2" transform="translate(558,631)"/>
<path d="M0 0 C2 1 2 1 2 1 Z " fill="#E5EFF5" transform="translate(464,631)"/>
<path d="" fill="#EFF4F9" transform="translate(0,0)"/>
<path d="" fill="#DDE8F0" transform="translate(0,0)"/>
<path d="M0 0 C2 1 2 1 2 1 Z " fill="#E8EEF3" transform="translate(612,625)"/>
<path d="M0 0 C2 1 2 1 2 1 Z " fill="#E9F2F8" transform="translate(584,622)"/>
<path d="M0 0 C2 1 2 1 2 1 Z " fill="#DAE4EF" transform="translate(429,620)"/>
<path d="" fill="#EAF2F7" transform="translate(0,0)"/>
<path d="" fill="#D6E4ED" transform="translate(0,0)"/>
<path d="M0 0 C2 1 2 1 2 1 Z " fill="#EBF0F4" transform="translate(636,605)"/>
<path d="M0 0 C2 1 2 1 2 1 Z " fill="#D6E4ED" transform="translate(556,601)"/>
<path d="" fill="#E8ECF2" transform="translate(0,0)"/>
<path d="M0 0 C2 1 2 1 2 1 Z " fill="#BBCEDF" transform="translate(441,592)"/>
<path d="" fill="#E7EEF5" transform="translate(0,0)"/>
<path d="" fill="#DAE1E6" transform="translate(0,0)"/>
<path d="" fill="#3393E1" transform="translate(0,0)"/>
<path d="" fill="#DBE3E7" transform="translate(0,0)"/>
<path d="" fill="#71B3E4" transform="translate(0,0)"/>
<path d="M0 0 C2 1 2 1 2 1 Z " fill="#3092E6" transform="translate(543,499)"/>
<path d="M0 0 C2 1 2 1 2 1 Z " fill="#258AE2" transform="translate(535,499)"/>
<path d="" fill="#D7E3ED" transform="translate(0,0)"/>
<path d="M0 0 C2 1 2 1 2 1 Z " fill="#D3DEE9" transform="translate(660,486)"/>
<path d="" fill="#D2DEEA" transform="translate(0,0)"/>
<path d="" fill="#D9E3EC" transform="translate(0,0)"/>
<path d="M0 0 C2 1 2 1 2 1 Z " fill="#D3E0EA" transform="translate(564,450)"/>
<path d="M0 0 C2 1 2 1 2 1 Z " fill="#CADEF0" transform="translate(636,438)"/>
<path d="" fill="#0743A6" transform="translate(0,0)"/>
<path d="" fill="#D6E2ED" transform="translate(0,0)"/>
<path d="M0 0 C2 1 2 1 2 1 Z " fill="#CEDBEA" transform="translate(552,429)"/>
<path d="" fill="#268AE0" transform="translate(0,0)"/>
<path d="" fill="#1176D0" transform="translate(0,0)"/>
<path d="" fill="#CEE1F3" transform="translate(0,0)"/>
<path d="" fill="#1172D3" transform="translate(0,0)"/>
<path d="" fill="#C3DCF0" transform="translate(0,0)"/>
<path d="M0 0 C2 1 2 1 2 1 Z " fill="#2C8DE2" transform="translate(615,326)"/>
<path d="" fill="#B4D5EE" transform="translate(0,0)"/>
<path d="" fill="#268DE4" transform="translate(0,0)"/>
<path d="" fill="#2090E8" transform="translate(0,0)"/>
<path d="M0 0 C2 1 2 1 2 1 Z " fill="#0860D0" transform="translate(420,294)"/>
<path d="M0 0 C2 1 2 1 2 1 Z " fill="#2283D5" transform="translate(553,288)"/>
<path d="M0 0 C2 1 2 1 2 1 Z " fill="#2193EB" transform="translate(588,287)"/>
<path d="" fill="#2090EA" transform="translate(0,0)"/>
<path d="" fill="#2691E7" transform="translate(0,0)"/>
<path d="M0 0 C2 1 2 1 2 1 Z " fill="#0890EF" transform="translate(496,283)"/>
<path d="M0 0 C2 1 2 1 2 1 Z " fill="#005CAE" transform="translate(686,282)"/>
<path d="M0 0 C2 1 2 1 2 1 Z " fill="#138AE7" transform="translate(557,276)"/>
<path d="M0 0 C2 1 2 1 2 1 Z " fill="#088CEA" transform="translate(525,271)"/>
<path d="M0 0 C2 1 2 1 2 1 Z " fill="#0A8AEC" transform="translate(500,271)"/>
<path d="M0 0 C2 1 2 1 2 1 Z " fill="#0A90EE" transform="translate(516,270)"/>
<path d="M0 0 C2 1 2 1 2 1 Z " fill="#024FB2" transform="translate(385,256)"/>
<path d="M0 0 C2 1 2 1 2 1 Z " fill="#0180D7" transform="translate(614,241)"/>
<path d="M0 0 C2 1 2 1 2 1 Z " fill="#0367C8" transform="translate(441,224)"/>
<path d="M0 0 C2 1 2 1 2 1 Z " fill="#0287D7" transform="translate(557,208)"/>
<path d="M0 0 C2 1 2 1 2 1 Z " fill="#017AD3" transform="translate(469,208)"/>
<path d="M0 0 C2 1 2 1 2 1 Z " fill="#0488D7" transform="translate(540,200)"/>
<path d="" fill="#000000" transform="translate(0,0)"/>
<path d="" fill="#000000" transform="translate(0,0)"/>
<path d="" fill="#C4C8CC" transform="translate(0,0)"/>
<path d="" fill="#CBCFD4" transform="translate(0,0)"/>
<path d="" fill="#CED2D8" transform="translate(0,0)"/>
<path d="" fill="#D0D5DA" transform="translate(0,0)"/>
<path d="" fill="#D3D7DC" transform="translate(0,0)"/>
<path d="" fill="#D3D7DE" transform="translate(0,0)"/>
<path d="" fill="#D0D6DE" transform="translate(0,0)"/>
<path d="" fill="#CCD2DC" transform="translate(0,0)"/>
<path d="" fill="#CACED8" transform="translate(0,0)"/>
<path d="" fill="#C2CCD6" transform="translate(0,0)"/>
<path d="" fill="#B9C5D2" transform="translate(0,0)"/>
<path d="" fill="#8BA6C5" transform="translate(0,0)"/>
<path d="" fill="#042B82" transform="translate(0,0)"/>
<path d="" fill="#052D87" transform="translate(0,0)"/>
<path d="" fill="#144F9A" transform="translate(0,0)"/>
<path d="" fill="#1451A0" transform="translate(0,0)"/>
<path d="" fill="#6F95C6" transform="translate(0,0)"/>
<path d="" fill="#668EC4" transform="translate(0,0)"/>
<path d="" fill="#1F5AA2" transform="translate(0,0)"/>
<path d="" fill="#09348B" transform="translate(0,0)"/>
<path d="" fill="#215A9F" transform="translate(0,0)"/>
<path d="" fill="#03236E" transform="translate(0,0)"/>
<path d="" fill="#022072" transform="translate(0,0)"/>
<path d="" fill="#155BB2" transform="translate(0,0)"/>
<path d="" fill="#1457B0" transform="translate(0,0)"/>
<path d="" fill="#1258AE" transform="translate(0,0)"/>
<path d="" fill="#0A4099" transform="translate(0,0)"/>
<path d="" fill="#073496" transform="translate(0,0)"/>
<path d="" fill="#03216F" transform="translate(0,0)"/>
<path d="" fill="#2D6FC0" transform="translate(0,0)"/>
<path d="" fill="#2564BB" transform="translate(0,0)"/>
<path d="" fill="#165CB6" transform="translate(0,0)"/>
<path d="" fill="#083B9A" transform="translate(0,0)"/>
<path d="" fill="#165EB6" transform="translate(0,0)"/>
<path d="" fill="#185DB6" transform="translate(0,0)"/>
<path d="" fill="#276AC0" transform="translate(0,0)"/>
<path d="" fill="#1762B8" transform="translate(0,0)"/>
<path d="" fill="#185FB9" transform="translate(0,0)"/>
<path d="" fill="#2469C2" transform="translate(0,0)"/>
<path d="" fill="#1663B7" transform="translate(0,0)"/>
<path d="" fill="#0B42A2" transform="translate(0,0)"/>
<path d="" fill="#2266C0" transform="translate(0,0)"/>
<path d="" fill="#175FC0" transform="translate(0,0)"/>
<path d="" fill="#115FC3" transform="translate(0,0)"/>
<path d="" fill="#4171B0" transform="translate(0,0)"/>
<path d="" fill="#135BBB" transform="translate(0,0)"/>
<path d="" fill="#0E4AAA" transform="translate(0,0)"/>
<path d="" fill="#1462BE" transform="translate(0,0)"/>
<path d="" fill="#0F54B2" transform="translate(0,0)"/>
<path d="" fill="#0F52B3" transform="translate(0,0)"/>
<path d="" fill="#0539A7" transform="translate(0,0)"/>
<path d="" fill="#1768C6" transform="translate(0,0)"/>
<path d="" fill="#1969C5" transform="translate(0,0)"/>
<path d="" fill="#1567C2" transform="translate(0,0)"/>
<path d="" fill="#0F5DBB" transform="translate(0,0)"/>
<path d="" fill="#1058B7" transform="translate(0,0)"/>
<path d="" fill="#1057BB" transform="translate(0,0)"/>
<path d="" fill="#1058B9" transform="translate(0,0)"/>
<path d="" fill="#0F56B6" transform="translate(0,0)"/>
<path d="" fill="#0E55B4" transform="translate(0,0)"/>
<path d="" fill="#6B8DBB" transform="translate(0,0)"/>
<path d="" fill="#093FA7" transform="translate(0,0)"/>
<path d="" fill="#4889CD" transform="translate(0,0)"/>
<path d="" fill="#082980" transform="translate(0,0)"/>
<path d="" fill="#9FB8DB" transform="translate(0,0)"/>
<path d="" fill="#5693D9" transform="translate(0,0)"/>
<path d="" fill="#719DD1" transform="translate(0,0)"/>
<path d="" fill="#699CD1" transform="translate(0,0)"/>
<path d="" fill="#498DD8" transform="translate(0,0)"/>
<path d="" fill="#709FDB" transform="translate(0,0)"/>
<path d="" fill="#98B8E2" transform="translate(0,0)"/>
<path d="" fill="#78A5D9" transform="translate(0,0)"/>
<path d="" fill="#7BA5D7" transform="translate(0,0)"/>
<path d="" fill="#77A5DB" transform="translate(0,0)"/>
<path d="" fill="#5A98DA" transform="translate(0,0)"/>
<path d="" fill="#5692D9" transform="translate(0,0)"/>
<path d="" fill="#5D9DE3" transform="translate(0,0)"/>
<path d="" fill="#84ADDA" transform="translate(0,0)"/>
<path d="" fill="#61A0E2" transform="translate(0,0)"/>
<path d="" fill="#5697DE" transform="translate(0,0)"/>
<path d="" fill="#70A3DD" transform="translate(0,0)"/>
<path d="" fill="#5391DC" transform="translate(0,0)"/>
<path d="" fill="#5C9DE2" transform="translate(0,0)"/>
<path d="" fill="#5C9BE1" transform="translate(0,0)"/>
<path d="" fill="#65A2E4" transform="translate(0,0)"/>
<path d="" fill="#82AADC" transform="translate(0,0)"/>
<path d="" fill="#3071C7" transform="translate(0,0)"/>
<path d="" fill="#2F6CC4" transform="translate(0,0)"/>
<path d="" fill="#5C98DD" transform="translate(0,0)"/>
<path d="" fill="#6CA5E6" transform="translate(0,0)"/>
<path d="" fill="#5796DE" transform="translate(0,0)"/>
<path d="" fill="#052B82" transform="translate(0,0)"/>
<path d="" fill="#8DB3E5" transform="translate(0,0)"/>
<path d="" fill="#98BAE0" transform="translate(0,0)"/>
<path d="" fill="#90B5DE" transform="translate(0,0)"/>
<path d="" fill="#BBD0E2" transform="translate(0,0)"/>
<path d="" fill="#90B4E2" transform="translate(0,0)"/>
<path d="" fill="#9BBFE8" transform="translate(0,0)"/>
<path d="" fill="#91B4E2" transform="translate(0,0)"/>
<path d="" fill="#042D86" transform="translate(0,0)"/>
<path d="" fill="#C3D6E6" transform="translate(0,0)"/>
<path d="" fill="#BACDE2" transform="translate(0,0)"/>
<path d="" fill="#7EABDE" transform="translate(0,0)"/>
<path d="" fill="#C4D7E6" transform="translate(0,0)"/>
<path d="" fill="#92B2D7" transform="translate(0,0)"/>
<path d="" fill="#A1C4E6" transform="translate(0,0)"/>
<path d="" fill="#C2D2E0" transform="translate(0,0)"/>
<path d="" fill="#154EB4" transform="translate(0,0)"/>
<path d="" fill="#90B7E5" transform="translate(0,0)"/>
<path d="" fill="#BAD1E0" transform="translate(0,0)"/>
<path d="" fill="#6F95CB" transform="translate(0,0)"/>
<path d="" fill="#6C92CB" transform="translate(0,0)"/>
<path d="" fill="#C3D4E7" transform="translate(0,0)"/>
<path d="" fill="#94B7E0" transform="translate(0,0)"/>
<path d="" fill="#94B7E0" transform="translate(0,0)"/>
<path d="" fill="#97BCE6" transform="translate(0,0)"/>
<path d="" fill="#A5C5E8" transform="translate(0,0)"/>
<path d="" fill="#CEDAE8" transform="translate(0,0)"/>
<path d="" fill="#7BA0D2" transform="translate(0,0)"/>
<path d="" fill="#A4C1E6" transform="translate(0,0)"/>
<path d="" fill="#A1BFE5" transform="translate(0,0)"/>
<path d="" fill="#9ABAE3" transform="translate(0,0)"/>
<path d="" fill="#95B5DC" transform="translate(0,0)"/>
<path d="" fill="#BDD1E7" transform="translate(0,0)"/>
<path d="" fill="#D6E5EE" transform="translate(0,0)"/>
<path d="" fill="#CDD9E3" transform="translate(0,0)"/>
<path d="" fill="#CED9E8" transform="translate(0,0)"/>
<path d="" fill="#D4E1ED" transform="translate(0,0)"/>
<path d="" fill="#D6E4ED" transform="translate(0,0)"/>
<path d="" fill="#D5E2EE" transform="translate(0,0)"/>
<path d="" fill="#CDDCE7" transform="translate(0,0)"/>
<path d="" fill="#D9E4EF" transform="translate(0,0)"/>
<path d="" fill="#DADFE4" transform="translate(0,0)"/>
<path d="" fill="#D8E2E7" transform="translate(0,0)"/>
<path d="" fill="#DCE9F2" transform="translate(0,0)"/>
<path d="" fill="#DCDFE4" transform="translate(0,0)"/>
<path d="" fill="#D9E4EC" transform="translate(0,0)"/>
<path d="" fill="#DEEBF2" transform="translate(0,0)"/>
<path d="" fill="#D7E2EF" transform="translate(0,0)"/>
<path d="" fill="#E3EDF6" transform="translate(0,0)"/>
<path d="" fill="#6789C1" transform="translate(0,0)"/>
<path d="" fill="#DBE6F0" transform="translate(0,0)"/>
<path d="" fill="#E0EBF1" transform="translate(0,0)"/>
<path d="" fill="#D9E3EC" transform="translate(0,0)"/>
<path d="" fill="#DFEAF1" transform="translate(0,0)"/>
<path d="" fill="#DBE7EE" transform="translate(0,0)"/>
<path d="" fill="#062B8B" transform="translate(0,0)"/>
<path d="" fill="#E5EEF4" transform="translate(0,0)"/>
<path d="" fill="#E4ECF3" transform="translate(0,0)"/>
<path d="" fill="#D7E3EB" transform="translate(0,0)"/>
<path d="" fill="#DDE6F1" transform="translate(0,0)"/>
<path d="" fill="#E2EBF3" transform="translate(0,0)"/>
<path d="" fill="#E8ECF4" transform="translate(0,0)"/>
<path d="" fill="#E3EAF5" transform="translate(0,0)"/>
<path d="" fill="#EBF2F4" transform="translate(0,0)"/>
<path d="" fill="#E5EEF3" transform="translate(0,0)"/>
<path d="" fill="#E4ECF5" transform="translate(0,0)"/>
<path d="" fill="#DDE6EF" transform="translate(0,0)"/>
<path d="" fill="#E2EBF4" transform="translate(0,0)"/>
<path d="" fill="#E6EDF3" transform="translate(0,0)"/>
<path d="" fill="#E8F1F7" transform="translate(0,0)"/>
<path d="" fill="#DFE2E7" transform="translate(0,0)"/>
<path d="" fill="#3266BC" transform="translate(0,0)"/>
<path d="" fill="#E3EBF2" transform="translate(0,0)"/>
<path d="" fill="#E6EDF4" transform="translate(0,0)"/>
<path d="" fill="#E4EAF1" transform="translate(0,0)"/>
<path d="" fill="#E9F0F5" transform="translate(0,0)"/>
<path d="" fill="#E5F1F5" transform="translate(0,0)"/>
<path d="" fill="#E5EDF3" transform="translate(0,0)"/>
<path d="" fill="#ECF4F8" transform="translate(0,0)"/>
<path d="" fill="#E7F0F5" transform="translate(0,0)"/>
<path d="" fill="#E6EDF6" transform="translate(0,0)"/>
<path d="" fill="#E4EBF2" transform="translate(0,0)"/>
<path d="" fill="#ECF2F8" transform="translate(0,0)"/>
<path d="" fill="#ECF2F8" transform="translate(0,0)"/>
<path d="" fill="#EAF1F9" transform="translate(0,0)"/>
<path d="" fill="#E5EDF3" transform="translate(0,0)"/>
<path d="" fill="#EBF5F9" transform="translate(0,0)"/>
<path d="" fill="#E4ECF5" transform="translate(0,0)"/>
<path d="" fill="#E5EBF3" transform="translate(0,0)"/>
<path d="" fill="#EAF0F5" transform="translate(0,0)"/>
<path d="" fill="#E3EDF3" transform="translate(0,0)"/>
<path d="" fill="#052C8A" transform="translate(0,0)"/>
<path d="" fill="#E0E7EE" transform="translate(0,0)"/>
<path d="" fill="#D8E2EC" transform="translate(0,0)"/>
<path d="" fill="#396FBF" transform="translate(0,0)"/>
<path d="" fill="#EBF1F7" transform="translate(0,0)"/>
<path d="" fill="#ECF2F7" transform="translate(0,0)"/>
<path d="" fill="#EAF2F6" transform="translate(0,0)"/>
<path d="" fill="#E6EEF5" transform="translate(0,0)"/>
<path d="" fill="#E7EFF8" transform="translate(0,0)"/>
<path d="" fill="#3B6EC0" transform="translate(0,0)"/>
<path d="" fill="#E6EEF4" transform="translate(0,0)"/>
<path d="" fill="#7395C8" transform="translate(0,0)"/>
<path d="" fill="#3D6DBF" transform="translate(0,0)"/>
<path d="" fill="#E7EDF4" transform="translate(0,0)"/>
<path d="" fill="#E6EEF7" transform="translate(0,0)"/>
<path d="" fill="#E1E9F3" transform="translate(0,0)"/>
<path d="" fill="#EBF1F7" transform="translate(0,0)"/>
<path d="" fill="#EBF2F7" transform="translate(0,0)"/>
<path d="" fill="#EDF3F7" transform="translate(0,0)"/>
<path d="" fill="#EEF4F7" transform="translate(0,0)"/>
<path d="" fill="#EEF6F9" transform="translate(0,0)"/>
<path d="" fill="#E7F0F8" transform="translate(0,0)"/>
<path d="" fill="#E2E8F2" transform="translate(0,0)"/>
<path d="" fill="#E0EAF0" transform="translate(0,0)"/>
<path d="" fill="#DDE8F1" transform="translate(0,0)"/>
<path d="" fill="#ADBFD9" transform="translate(0,0)"/>
<path d="" fill="#A4BAD6" transform="translate(0,0)"/>
<path d="" fill="#E6EFF2" transform="translate(0,0)"/>
<path d="" fill="#E8F2F3" transform="translate(0,0)"/>
<path d="" fill="#E7F0F2" transform="translate(0,0)"/>
<path d="" fill="#C8D8E4" transform="translate(0,0)"/>
<path d="" fill="#E9F1F5" transform="translate(0,0)"/>
<path d="" fill="#BCCADD" transform="translate(0,0)"/>
<path d="" fill="#E6EEF5" transform="translate(0,0)"/>
<path d="" fill="#D0DDE9" transform="translate(0,0)"/>
<path d="" fill="#C2D1E2" transform="translate(0,0)"/>
<path d="" fill="#AABFD9" transform="translate(0,0)"/>
<path d="" fill="#E8EDF4" transform="translate(0,0)"/>
<path d="" fill="#E9EFF5" transform="translate(0,0)"/>
<path d="" fill="#E8EDF3" transform="translate(0,0)"/>
<path d="" fill="#EBF1F7" transform="translate(0,0)"/>
<path d="" fill="#D2DEEA" transform="translate(0,0)"/>
<path d="" fill="#DEE9F2" transform="translate(0,0)"/>
<path d="" fill="#DAE4EF" transform="translate(0,0)"/>
<path d="" fill="#EAF0F6" transform="translate(0,0)"/>
<path d="" fill="#EAF1F7" transform="translate(0,0)"/>
<path d="" fill="#D2DFE9" transform="translate(0,0)"/>
<path d="" fill="#CBDBEA" transform="translate(0,0)"/>
<path d="" fill="#EBF1F7" transform="translate(0,0)"/>
<path d="" fill="#EBF2F8" transform="translate(0,0)"/>
<path d="" fill="#DCE8F3" transform="translate(0,0)"/>
<path d="" fill="#D8E2EE" transform="translate(0,0)"/>
<path d="" fill="#D7E3ED" transform="translate(0,0)"/>
<path d="" fill="#E9F1F5" transform="translate(0,0)"/>
<path d="" fill="#E9F0F6" transform="translate(0,0)"/>
<path d="" fill="#D8E3EE" transform="translate(0,0)"/>
<path d="" fill="#D8E1ED" transform="translate(0,0)"/>
<path d="" fill="#E2E5E9" transform="translate(0,0)"/>
<path d="" fill="#E8ECF1" transform="translate(0,0)"/>
<path d="" fill="#E9F1F5" transform="translate(0,0)"/>
<path d="" fill="#E8EBF0" transform="translate(0,0)"/>
<path d="" fill="#D3E1EC" transform="translate(0,0)"/>
<path d="" fill="#CDDDE8" transform="translate(0,0)"/>
<path d="" fill="#E9EFF5" transform="translate(0,0)"/>
<path d="" fill="#C8DCE5" transform="translate(0,0)"/>
<path d="" fill="#D3DFEC" transform="translate(0,0)"/>
<path d="" fill="#E6EDF1" transform="translate(0,0)"/>
<path d="" fill="#D5E3EC" transform="translate(0,0)"/>
<path d="" fill="#C8D7E6" transform="translate(0,0)"/>
<path d="" fill="#D7E5EE" transform="translate(0,0)"/>
<path d="" fill="#DEE3E7" transform="translate(0,0)"/>
<path d="" fill="#EDF3F5" transform="translate(0,0)"/>
<path d="" fill="#D9E5ED" transform="translate(0,0)"/>
<path d="" fill="#366ABF" transform="translate(0,0)"/>
<path d="" fill="#E3E8EC" transform="translate(0,0)"/>
<path d="" fill="#C7D9E6" transform="translate(0,0)"/>
<path d="" fill="#EBF0F4" transform="translate(0,0)"/>
<path d="" fill="#C2D6E3" transform="translate(0,0)"/>
<path d="" fill="#3165BA" transform="translate(0,0)"/>
<path d="" fill="#3063BA" transform="translate(0,0)"/>
<path d="" fill="#E1E4E6" transform="translate(0,0)"/>
<path d="" fill="#DDE9EF" transform="translate(0,0)"/>
<path d="" fill="#B7CCDE" transform="translate(0,0)"/>
<path d="" fill="#B6C9DE" transform="translate(0,0)"/>
<path d="" fill="#DEE8F0" transform="translate(0,0)"/>
<path d="" fill="#B2C7DE" transform="translate(0,0)"/>
<path d="" fill="#042F89" transform="translate(0,0)"/>
<path d="" fill="#A1B5D3" transform="translate(0,0)"/>
<path d="" fill="#EBF0F5" transform="translate(0,0)"/>
<path d="" fill="#E8EDF2" transform="translate(0,0)"/>
<path d="" fill="#DBE1E4" transform="translate(0,0)"/>
<path d="" fill="#ECF1F6" transform="translate(0,0)"/>
<path d="" fill="#DEE2E5" transform="translate(0,0)"/>
<path d="" fill="#EBF1F3" transform="translate(0,0)"/>
<path d="" fill="#EDF3F6" transform="translate(0,0)"/>
<path d="" fill="#EFF3F6" transform="translate(0,0)"/>
<path d="" fill="#EBF0F4" transform="translate(0,0)"/>
<path d="" fill="#2961BA" transform="translate(0,0)"/>
<path d="" fill="#DCE3E6" transform="translate(0,0)"/>
<path d="" fill="#E0E4E8" transform="translate(0,0)"/>
<path d="" fill="#E9EEF4" transform="translate(0,0)"/>
<path d="" fill="#DCE2E4" transform="translate(0,0)"/>
<path d="" fill="#E2E5E8" transform="translate(0,0)"/>
<path d="" fill="#E8EDF3" transform="translate(0,0)"/>
<path d="" fill="#DCE1E6" transform="translate(0,0)"/>
<path d="" fill="#E9EEF4" transform="translate(0,0)"/>
<path d="" fill="#E0E5E8" transform="translate(0,0)"/>
<path d="" fill="#E5EDF1" transform="translate(0,0)"/>
<path d="" fill="#000000" transform="translate(0,0)"/>
<path d="" fill="#E5EDF2" transform="translate(0,0)"/>
<path d="" fill="#1851AC" transform="translate(0,0)"/>
<path d="" fill="#DCE1E6" transform="translate(0,0)"/>
<path d="" fill="#DCE2E5" transform="translate(0,0)"/>
<path d="" fill="#E9F0F3" transform="translate(0,0)"/>
<path d="" fill="#D5DCDF" transform="translate(0,0)"/>
<path d="" fill="#E7EEF2" transform="translate(0,0)"/>
<path d="" fill="#E7ECF3" transform="translate(0,0)"/>
<path d="" fill="#DCE2E7" transform="translate(0,0)"/>
<path d="" fill="#308BDA" transform="translate(0,0)"/>
<path d="" fill="#043290" transform="translate(0,0)"/>
<path d="" fill="#3B93DE" transform="translate(0,0)"/>
<path d="" fill="#DCE3E7" transform="translate(0,0)"/>
<path d="" fill="#042E89" transform="translate(0,0)"/>
<path d="" fill="#E2E6EB" transform="translate(0,0)"/>
<path d="" fill="#E2EAF2" transform="translate(0,0)"/>
<path d="" fill="#DADEE4" transform="translate(0,0)"/>
<path d="" fill="#DFE7F3" transform="translate(0,0)"/>
<path d="" fill="#DDE4E8" transform="translate(0,0)"/>
<path d="" fill="#E0E9F2" transform="translate(0,0)"/>
<path d="" fill="#053396" transform="translate(0,0)"/>
<path d="" fill="#DBE3E8" transform="translate(0,0)"/>
<path d="" fill="#3294E2" transform="translate(0,0)"/>
<path d="" fill="#3F9BE3" transform="translate(0,0)"/>
<path d="" fill="#05318B" transform="translate(0,0)"/>
<path d="" fill="#DFE5EA" transform="translate(0,0)"/>
<path d="" fill="#DAE2E7" transform="translate(0,0)"/>
<path d="" fill="#3D9CE3" transform="translate(0,0)"/>
<path d="" fill="#44A3E5" transform="translate(0,0)"/>
<path d="" fill="#439EE5" transform="translate(0,0)"/>
<path d="" fill="#3FA2E7" transform="translate(0,0)"/>
<path d="" fill="#DAE2E8" transform="translate(0,0)"/>
<path d="" fill="#DFEAF2" transform="translate(0,0)"/>
<path d="" fill="#043293" transform="translate(0,0)"/>
<path d="" fill="#DDE4EB" transform="translate(0,0)"/>
<path d="" fill="#DBE5E9" transform="translate(0,0)"/>
<path d="" fill="#5BACE5" transform="translate(0,0)"/>
<path d="" fill="#DDE5EC" transform="translate(0,0)"/>
<path d="" fill="#DBE4EC" transform="translate(0,0)"/>
<path d="" fill="#3A98E7" transform="translate(0,0)"/>
<path d="" fill="#3395E7" transform="translate(0,0)"/>
<path d="" fill="#278DE4" transform="translate(0,0)"/>
<path d="" fill="#2087E4" transform="translate(0,0)"/>
<path d="" fill="#1C83DE" transform="translate(0,0)"/>
<path d="" fill="#177DDC" transform="translate(0,0)"/>
<path d="" fill="#147ADC" transform="translate(0,0)"/>
<path d="" fill="#1676DA" transform="translate(0,0)"/>
<path d="" fill="#116FD3" transform="translate(0,0)"/>
<path d="" fill="#0A52BD" transform="translate(0,0)"/>
<path d="" fill="#D6E3ED" transform="translate(0,0)"/>
<path d="" fill="#D3E0EC" transform="translate(0,0)"/>
<path d="" fill="#D2E2ED" transform="translate(0,0)"/>
<path d="" fill="#094CB2" transform="translate(0,0)"/>
<path d="" fill="#DAE4EC" transform="translate(0,0)"/>
<path d="" fill="#DAE5F2" transform="translate(0,0)"/>
<path d="" fill="#073899" transform="translate(0,0)"/>
<path d="" fill="#05379A" transform="translate(0,0)"/>
<path d="" fill="#D8E6F0" transform="translate(0,0)"/>
<path d="" fill="#D5E2EA" transform="translate(0,0)"/>
<path d="" fill="#CFE1ED" transform="translate(0,0)"/>
<path d="" fill="#053898" transform="translate(0,0)"/>
<path d="" fill="#D1DFEA" transform="translate(0,0)"/>
<path d="" fill="#0752BF" transform="translate(0,0)"/>
<path d="" fill="#CBDAEB" transform="translate(0,0)"/>
<path d="" fill="#D1E0ED" transform="translate(0,0)"/>
<path d="" fill="#D7E3ED" transform="translate(0,0)"/>
<path d="" fill="#073E9D" transform="translate(0,0)"/>
<path d="" fill="#DAE6EE" transform="translate(0,0)"/>
<path d="" fill="#DAE2ED" transform="translate(0,0)"/>
<path d="" fill="#083B9C" transform="translate(0,0)"/>
<path d="" fill="#D1DFEB" transform="translate(0,0)"/>
<path d="" fill="#CFDCEA" transform="translate(0,0)"/>
<path d="" fill="#0D61CC" transform="translate(0,0)"/>
<path d="" fill="#063EA0" transform="translate(0,0)"/>
<path d="" fill="#D2E0EC" transform="translate(0,0)"/>
<path d="" fill="#0742A5" transform="translate(0,0)"/>
<path d="" fill="#5BA4E4" transform="translate(0,0)"/>
<path d="" fill="#0C65CB" transform="translate(0,0)"/>
<path d="" fill="#2573B9" transform="translate(0,0)"/>
<path d="" fill="#5CA4E4" transform="translate(0,0)"/>
<path d="" fill="#0D66CE" transform="translate(0,0)"/>
<path d="" fill="#4E9CE0" transform="translate(0,0)"/>
<path d="" fill="#6EACE4" transform="translate(0,0)"/>
<path d="" fill="#CFE4F2" transform="translate(0,0)"/>
<path d="" fill="#CFDCEA" transform="translate(0,0)"/>
<path d="" fill="#1E66AD" transform="translate(0,0)"/>
<path d="" fill="#D1E3F1" transform="translate(0,0)"/>
<path d="" fill="#1D6EB8" transform="translate(0,0)"/>
<path d="" fill="#D2E5F1" transform="translate(0,0)"/>
<path d="" fill="#5BA6E4" transform="translate(0,0)"/>
<path d="" fill="#CDDFF1" transform="translate(0,0)"/>
<path d="" fill="#D1E3F5" transform="translate(0,0)"/>
<path d="" fill="#4EA1E1" transform="translate(0,0)"/>
<path d="" fill="#CCE1F3" transform="translate(0,0)"/>
<path d="" fill="#106CD0" transform="translate(0,0)"/>
<path d="" fill="#CAD8E8" transform="translate(0,0)"/>
<path d="" fill="#4D9FE9" transform="translate(0,0)"/>
<path d="" fill="#C9D8E6" transform="translate(0,0)"/>
<path d="" fill="#C8D7E4" transform="translate(0,0)"/>
<path d="" fill="#0845AC" transform="translate(0,0)"/>
<path d="" fill="#CDE1EF" transform="translate(0,0)"/>
<path d="" fill="#CBD7E5" transform="translate(0,0)"/>
<path d="" fill="#1873D5" transform="translate(0,0)"/>
<path d="" fill="#1772D5" transform="translate(0,0)"/>
<path d="" fill="#1C73D2" transform="translate(0,0)"/>
<path d="" fill="#CDE3F3" transform="translate(0,0)"/>
<path d="" fill="#0647AC" transform="translate(0,0)"/>
<path d="" fill="#1570D4" transform="translate(0,0)"/>
<path d="" fill="#BDCFDF" transform="translate(0,0)"/>
<path d="" fill="#B9CADF" transform="translate(0,0)"/>
<path d="" fill="#0847AE" transform="translate(0,0)"/>
<path d="" fill="#2487DF" transform="translate(0,0)"/>
<path d="" fill="#2384DF" transform="translate(0,0)"/>
<path d="" fill="#2286E0" transform="translate(0,0)"/>
<path d="" fill="#B9CBE1" transform="translate(0,0)"/>
<path d="" fill="#2088E1" transform="translate(0,0)"/>
<path d="" fill="#B3C6DD" transform="translate(0,0)"/>
<path d="" fill="#2386E0" transform="translate(0,0)"/>
<path d="" fill="#1873D5" transform="translate(0,0)"/>
<path d="" fill="#8DABD0" transform="translate(0,0)"/>
<path d="" fill="#85A5CF" transform="translate(0,0)"/>
<path d="" fill="#7198CC" transform="translate(0,0)"/>
<path d="" fill="#648EC9" transform="translate(0,0)"/>
<path d="" fill="#0949AF" transform="translate(0,0)"/>
<path d="" fill="#5886C6" transform="translate(0,0)"/>
<path d="" fill="#0E71C7" transform="translate(0,0)"/>
<path d="" fill="#2187E1" transform="translate(0,0)"/>
<path d="" fill="#1E84DD" transform="translate(0,0)"/>
<path d="" fill="#D0E4F2" transform="translate(0,0)"/>
<path d="" fill="#2768BE" transform="translate(0,0)"/>
<path d="" fill="#1773D6" transform="translate(0,0)"/>
<path d="" fill="#1A71D1" transform="translate(0,0)"/>
<path d="" fill="#C6E1F1" transform="translate(0,0)"/>
<path d="" fill="#CCE3F1" transform="translate(0,0)"/>
<path d="" fill="#1C65C2" transform="translate(0,0)"/>
<path d="" fill="#185FC0" transform="translate(0,0)"/>
<path d="" fill="#1071D2" transform="translate(0,0)"/>
<path d="" fill="#CCE0F2" transform="translate(0,0)"/>
<path d="" fill="#1266CA" transform="translate(0,0)"/>
<path d="" fill="#C1DEF0" transform="translate(0,0)"/>
<path d="" fill="#C4DDEE" transform="translate(0,0)"/>
<path d="" fill="#4A96E4" transform="translate(0,0)"/>
<path d="" fill="#0A55BA" transform="translate(0,0)"/>
<path d="" fill="#499BE4" transform="translate(0,0)"/>
<path d="" fill="#2C8EE4" transform="translate(0,0)"/>
<path d="" fill="#4899E4" transform="translate(0,0)"/>
<path d="" fill="#2589E1" transform="translate(0,0)"/>
<path d="" fill="#4198E6" transform="translate(0,0)"/>
<path d="" fill="#BDD9EE" transform="translate(0,0)"/>
<path d="" fill="#0B58C3" transform="translate(0,0)"/>
<path d="" fill="#0A4DB7" transform="translate(0,0)"/>
<path d="" fill="#3E95E3" transform="translate(0,0)"/>
<path d="" fill="#BBD8F0" transform="translate(0,0)"/>
<path d="" fill="#1786E5" transform="translate(0,0)"/>
<path d="" fill="#1582E5" transform="translate(0,0)"/>
<path d="" fill="#0E7EE4" transform="translate(0,0)"/>
<path d="" fill="#0C7ADD" transform="translate(0,0)"/>
<path d="" fill="#A3CBEA" transform="translate(0,0)"/>
<path d="" fill="#A7CCEB" transform="translate(0,0)"/>
<path d="" fill="#055ED1" transform="translate(0,0)"/>
<path d="" fill="#0641A6" transform="translate(0,0)"/>
<path d="" fill="#0540A4" transform="translate(0,0)"/>
<path d="" fill="#258EE2" transform="translate(0,0)"/>
<path d="" fill="#0B63CD" transform="translate(0,0)"/>
<path d="" fill="#7BB2E1" transform="translate(0,0)"/>
<path d="" fill="#0B67D4" transform="translate(0,0)"/>
<path d="" fill="#086BCE" transform="translate(0,0)"/>
<path d="" fill="#033899" transform="translate(0,0)"/>
<path d="" fill="#086BC9" transform="translate(0,0)"/>
<path d="" fill="#2A92E6" transform="translate(0,0)"/>
<path d="" fill="#2C92E7" transform="translate(0,0)"/>
<path d="" fill="#2A88D8" transform="translate(0,0)"/>
<path d="" fill="#077FE3" transform="translate(0,0)"/>
<path d="" fill="#2F90E3" transform="translate(0,0)"/>
<path d="" fill="#127AD7" transform="translate(0,0)"/>
<path d="" fill="#0989E7" transform="translate(0,0)"/>
<path d="" fill="#0A8CE7" transform="translate(0,0)"/>
<path d="" fill="#098EED" transform="translate(0,0)"/>
<path d="" fill="#0698F3" transform="translate(0,0)"/>
<path d="" fill="#012F83" transform="translate(0,0)"/>
<path d="" fill="#0B72DE" transform="translate(0,0)"/>
<path d="" fill="#015FB4" transform="translate(0,0)"/>
<path d="" fill="#158DEA" transform="translate(0,0)"/>
<path d="" fill="#0566B9" transform="translate(0,0)"/>
<path d="" fill="#128BE9" transform="translate(0,0)"/>
<path d="" fill="#1289E6" transform="translate(0,0)"/>
<path d="" fill="#0983EA" transform="translate(0,0)"/>
<path d="" fill="#0A85EA" transform="translate(0,0)"/>
<path d="" fill="#013996" transform="translate(0,0)"/>
<path d="" fill="#138DED" transform="translate(0,0)"/>
<path d="" fill="#056BC7" transform="translate(0,0)"/>
<path d="" fill="#078EEF" transform="translate(0,0)"/>
<path d="" fill="#098DED" transform="translate(0,0)"/>
<path d="" fill="#0476CF" transform="translate(0,0)"/>
<path d="" fill="#0347A9" transform="translate(0,0)"/>
<path d="" fill="#0448AC" transform="translate(0,0)"/>
<path d="" fill="#057DD2" transform="translate(0,0)"/>
<path d="" fill="#0251B8" transform="translate(0,0)"/>
<path d="" fill="#0159C4" transform="translate(0,0)"/>
<path d="" fill="#025AC3" transform="translate(0,0)"/>
<path d="" fill="#0478CA" transform="translate(0,0)"/>
<path d="" fill="#0158BF" transform="translate(0,0)"/>
<path d="" fill="#0384DD" transform="translate(0,0)"/>
<path d="" fill="#0086DD" transform="translate(0,0)"/>
<path d="" fill="#0180D4" transform="translate(0,0)"/>
<path d="" fill="#015CC1" transform="translate(0,0)"/>
<path d="" fill="#0067CB" transform="translate(0,0)"/>
<path d="" fill="#0589D7" transform="translate(0,0)"/>
<path d="" fill="#0190DC" transform="translate(0,0)"/>
<path d="" fill="#0077D1" transform="translate(0,0)"/>
<path d="" fill="#028BD8" transform="translate(0,0)"/>
<path d="" fill="#038BD9" transform="translate(0,0)"/>
<path d="" fill="#058FDB" transform="translate(0,0)"/>
<path d="" fill="#0175CC" transform="translate(0,0)"/>
<path d="" fill="#027CCF" transform="translate(0,0)"/>
<path d="" fill="#0784CF" transform="translate(0,0)"/>
<path d="" fill="#0488CE" transform="translate(0,0)"/>
<path d="" fill="#0381C8" transform="translate(0,0)"/>
<path d="" fill="#0683D1" transform="translate(0,0)"/>
<path d="" fill="#000000" transform="translate(0,0)"/>
</svg>