<svg xmlns="http://www.w3.org/2000/svg" version="1.1" viewBox="119 252 1434 413">
<path d="M0 0 C-0.43277113 5.98185879 -3.14529529 10.13061029 -6.1875 15.125 C-9.88801409 21.34131624 -13.41192109 27.51508776 -16.48828125 34.06640625 C-17.82121736 36.65306004 -19.25068435 39.10132911 -20.76171875 41.5859375 C-24.8301889 48.29844489 -28.47042296 55.23233621 -32.14453125 62.16601562 C-35.08484453 67.65717348 -38.17695467 72.89354597 -41.69628906 78.03198242 C-43.41345783 80.6241355 -44.78776143 83.32061969 -46.125 86.125 C-47.8946466 89.81426325 -49.76264776 93.39521513 -51.8125 96.93701172 C-53.22727039 99.39482623 -54.61225848 101.86838461 -55.99609375 104.34375 C-56.54765137 105.33028564 -57.09920898 106.31682129 -57.66748047 107.33325195 C-58.54364014 108.90079224 -58.54364014 108.90079224 -59.4375 110.5 C-67.62154106 125.12472978 -75.83645428 139.73156103 -84.16015625 154.27734375 C-84.51553467 154.89849564 -84.87091309 155.51964752 -85.23706055 156.15962219 C-86.97114224 159.18991224 -88.70670813 162.21933665 -90.44482422 165.24731445 C-93.87407937 171.23264686 -97.24448569 177.24261201 -100.5324707 183.30664062 C-103.10143907 188.02147326 -105.73588221 192.69916744 -108.375 197.375 C-109.2259021 198.88380737 -109.2259021 198.88380737 -110.09399414 200.4230957 C-113.69075433 206.77107272 -117.42956506 212.98905667 -121.30859375 219.16796875 C-123.59283126 222.99261585 -125.49896462 226.96669939 -127.44140625 230.97265625 C-129.7125778 235.3840797 -132.36806943 239.53007095 -135.00390625 243.73046875 C-136.91119691 246.85454367 -138.66308534 250.01548831 -140.375 253.25 C-143.49780486 259.14705064 -146.83664918 264.88972128 -150.2355957 270.62963867 C-156.18118989 280.67121186 -161.91151455 290.83275429 -167.62719727 301.00634766 C-170.24079314 305.65615009 -172.86239364 310.30127025 -175.5 314.9375 C-176.1496875 316.08089844 -176.799375 317.22429687 -177.46875 318.40234375 C-179 321 -179 321 -180 322 C-181.7492872 322.09365006 -183.50236254 322.11744438 -185.25415039 322.11352539 C-186.37523697 322.11344986 -187.49632355 322.11337433 -188.65138245 322.11329651 C-190.48103798 322.10555458 -190.48103798 322.10555458 -192.34765625 322.09765625 C-193.58921982 322.0962413 -194.83078339 322.09482635 -196.10997009 322.09336853 C-199.41605491 322.08870591 -202.72207146 322.07971497 -206.02813721 322.06866455 C-209.3996115 322.05844827 -212.77109283 322.05387045 -216.14257812 322.04882812 C-222.76173775 322.03777395 -229.38086493 322.02101736 -236 322 C-235.29549106 317.10842765 -234.05002684 313.88516389 -231.5 309.625 C-230.7715 308.38839494 -230.04366108 307.15140025 -229.31640625 305.9140625 C-228.93629395 305.2737207 -228.55618164 304.63337891 -228.16455078 303.97363281 C-226.21606825 300.67142469 -224.32244363 297.3387888 -222.4375 294 C-221.87131958 292.99839844 -221.87131958 292.99839844 -221.29370117 291.9765625 C-218.8336682 287.58710233 -216.52733372 283.14259206 -214.3125 278.625 C-211.93667431 273.78596193 -209.35917868 269.19920159 -206.52734375 264.6171875 C-204.3840648 260.94456117 -202.54587937 257.13518703 -200.67797852 253.31689453 C-198.2391603 248.37495528 -195.50155743 243.66185814 -192.68359375 238.9296875 C-191.00064457 236.00112164 -189.48506208 233.03315067 -188 230 C-186.02824587 225.97303125 -183.92415297 222.09926063 -181.625 218.25 C-178.93165161 213.71197318 -176.50820706 209.10894169 -174.1875 204.375 C-171.27622143 198.43796644 -168.18076425 192.63726881 -164.9375 186.875 C-162.01525736 181.68112308 -159.18851136 176.47753989 -156.5625 171.125 C-153.27351255 164.42261896 -149.67341594 157.9137581 -146.04931641 151.38769531 C-142.79856003 145.51197273 -139.76239158 139.57549671 -136.8046875 133.546875 C-134.66528229 129.34215653 -132.37517011 125.23617208 -130.0625 121.125 C-126.5442451 114.86423602 -123.21016619 108.54951843 -120.03710938 102.10766602 C-115.12408111 92.15289991 -109.86486707 82.37420246 -104.64453125 72.578125 C-100.69213496 65.15386949 -96.82333253 57.70150684 -93.09155273 50.16381836 C-90.04765913 44.0392492 -86.86882233 37.98879489 -83.64526367 31.95703125 C-81.69638606 28.2959818 -79.80094669 24.63825118 -78.08984375 20.859375 C-74.8761135 13.79852534 -72.3831976 9.00996904 -65 6 C-63.92685547 5.49146484 -63.92685547 5.49146484 -62.83203125 4.97265625 C-55.23014225 1.59828341 -47.07792995 -0.15188069 -39 -2 C-38.16855469 -2.19851563 -37.33710938 -2.39703125 -36.48046875 -2.6015625 C-25.22791667 -4.40905905 -10.83804459 -3.61268153 0 0 Z " fill="#0276EE" transform="translate(355,338)"/>
<path d="M0 0 C6.24047141 1.15145436 6.24047141 1.15145436 9 4 C10.05211866 5.96971986 10.89970803 7.98476348 11.7578125 10.046875 C16.74476238 21.90264264 22.65001232 33.32191803 28.703125 44.66015625 C30.52124371 48.07082624 32.26384886 51.51225478 33.98144531 54.97436523 C35.84503645 58.68055306 37.8056175 62.33576216 39.75 66 C44.62795194 75.23140259 49.31414387 84.54811894 53.94287109 93.90625 C58.50643901 103.12309901 63.21023246 112.25671579 68.00097656 121.35766602 C71.14645581 127.34205504 74.19483182 133.36348816 77.1953125 139.421875 C79.37253937 143.77632875 81.65959735 148.07262796 83.9375 152.375 C87.02990089 158.21626615 90.06776737 164.07668149 93 170 C95.73638376 175.52114482 98.55305468 180.99227649 101.4375 186.4375 C106.196575 195.42177941 110.8521867 204.45786062 115.5 213.5 C120.5572695 223.33854034 125.63967155 233.16110923 130.81640625 242.9375 C133.69429111 248.38456927 136.45009587 253.8831794 139.1875 259.40234375 C141.23083867 263.4878859 143.36503293 267.52429104 145.5 271.5625 C146.80742151 274.04305462 148.11422329 276.52393496 149.42089844 279.00488281 C150.58394433 281.21085793 151.74882154 283.4158205 152.91503906 285.62011719 C154.64807512 288.89791607 156.37170776 292.18054139 158.09057617 295.46578979 C158.77755222 296.77523148 159.46747435 298.08313197 160.16040039 299.38943481 C161.13806404 301.23356494 162.10524798 303.08284644 163.0703125 304.93359375 C163.63508301 306.00665771 164.19985352 307.07972168 164.78173828 308.18530273 C166 311 166 311 166 315 C158.50710973 315.1390921 151.01435346 315.24566657 143.52046585 315.31087303 C140.04052345 315.34217194 136.5614649 315.3846128 133.08203125 315.45263672 C129.08064355 315.53037433 125.08018231 315.55942902 121.078125 315.5859375 C119.20607391 315.63238907 119.20607391 315.63238907 117.29620361 315.67977905 C114.08691469 315.68103188 111.14656234 315.63104733 108 315 C105.30322266 312.19677734 105.30322266 312.19677734 104 309 C103.63922363 308.34290039 103.27844727 307.68580078 102.90673828 307.00878906 C102.63071777 306.43354492 102.35469727 305.85830078 102.0703125 305.265625 C101.75304199 304.61432617 101.43577148 303.96302734 101.10888672 303.29199219 C100.7842041 302.61813477 100.45952148 301.94427734 100.125 301.25 C97.45571821 295.80223289 94.62614359 290.57259803 91.42578125 285.4140625 C89.82885319 282.71022265 88.44338899 279.94507409 87.0625 277.125 C85.02964628 272.97436916 82.86028367 268.97357647 80.5 265 C78.1642925 261.06617685 76.01165894 257.10892039 74 253 C72.00830089 248.93207343 69.8798867 245.01655807 67.5625 241.125 C65.10984689 236.98915358 62.86793264 232.816741 60.75 228.5 C57.37288255 221.62379247 53.69396672 214.93844859 49.9753418 208.24194336 C47.56755018 203.89269131 45.22732334 199.53945715 43.0625 195.0625 C39.85143247 188.48167846 36.12923936 182.20013977 32.46655273 175.86425781 C28.90401327 169.66998753 25.63400844 163.41435068 22.5078125 156.98828125 C21.11779258 154.23344903 19.61966959 151.62454313 18 149 C15.74243388 145.33588744 13.77047223 141.61419943 11.875 137.75 C5.63791315 125.08221384 -1.23273625 112.71471216 -8.3125 100.5 C-11.4754764 95.01360267 -14.33737522 89.42323745 -17.1328125 83.7421875 C-19.28493991 79.3931458 -21.54386389 75.10164725 -23.8125 70.8125 C-24.19784912 70.08119873 -24.58319824 69.34989746 -24.98022461 68.59643555 C-25.3438208 67.91105713 -25.70741699 67.22567871 -26.08203125 66.51953125 C-26.40405518 65.91214111 -26.7260791 65.30475098 -27.05786133 64.67895508 C-27.95944856 63.07226542 -28.97803941 61.53294088 -30 60 C-30.58898601 55.58260494 -29.84818911 53.37468968 -27.23828125 49.83203125 C-25.77119216 47.66147988 -24.69478524 45.42627371 -23.5625 43.0625 C-19.9616041 35.71373285 -15.88638333 28.64526471 -11.83935547 21.53515625 C-7.78666115 14.4104658 -3.826185 7.24888141 0 0 Z " fill="#15191C" transform="translate(368,345)"/>
<path d="M0 0 C4.01302352 0.45950986 6.87017691 1.86545182 10.31640625 3.9140625 C11.32896484 4.51089844 12.34152344 5.10773438 13.38476562 5.72265625 C14.43341797 6.35042969 15.48207031 6.97820312 16.5625 7.625 C17.58408203 8.22957031 18.60566406 8.83414062 19.65820312 9.45703125 C21.72814386 10.68201826 23.79690507 11.9090005 25.86450195 13.13793945 C29.03619702 15.02149612 32.21045969 16.90030758 35.390625 18.76953125 C36.32036133 19.31714111 37.25009766 19.86475098 38.20800781 20.42895508 C41.15310973 22.08615435 44.147154 23.58828543 47.1875 25.0625 C50.81813752 26.83779228 54.17997133 28.69691705 57.5 31 C60.61400531 33.15119448 63.71656905 34.91721993 67.125 36.5625 C78.78731538 42.22918914 89.9557354 48.92317387 101.17578125 55.41015625 C106.36307147 58.40655864 111.54884457 61.3144508 116.9375 63.9375 C122.29093113 66.55362413 127.32502734 69.55602265 132.40039062 72.66357422 C138.10569115 76.12961819 143.96764906 79.13547581 150 82 C150 83.32 150 84.64 150 86 C147.87717331 87.00460531 145.75166979 88.00355602 143.625 89 C142.44164062 89.556875 141.25828125 90.11375 140.0390625 90.6875 C137 92 137 92 135 92 C135.01487992 100.91044491 135.05649503 109.82024955 135.13209057 118.73038769 C135.16635763 122.86793938 135.19147002 127.00512196 135.19555664 131.14282227 C135.19984034 135.13726411 135.22830757 139.13087337 135.27343178 143.12505531 C135.28640474 144.64759786 135.29071512 146.17024006 135.28615379 147.69283104 C135.28124567 149.8289272 135.30734153 151.96259181 135.34057617 154.09838867 C135.35056892 155.92040047 135.35056892 155.92040047 135.36076355 157.77922058 C136.17356079 161.8744824 137.9924388 163.21325421 141 166 C141.92974129 172.40488445 140.53791419 175.69312872 137 181 C137.45375 181.53625 137.9075 182.0725 138.375 182.625 C142.17011589 188.17170784 142.74110611 194.80895577 143.6875 201.3125 C143.90116211 202.69018555 143.90116211 202.69018555 144.11914062 204.09570312 C144.24869141 204.96775391 144.37824219 205.83980469 144.51171875 206.73828125 C144.62990967 207.53274658 144.74810059 208.32721191 144.86987305 209.14575195 C144.91281494 209.75765381 144.95575684 210.36955566 145 211 C144 212 144 212 141.31616211 212.11352539 C140.14835205 212.10828857 138.98054199 212.10305176 137.77734375 212.09765625 C136.51728516 212.09443359 135.25722656 212.09121094 133.95898438 212.08789062 C132.61848891 212.07953403 131.27799412 212.07106907 129.9375 212.0625 C128.59310058 212.0574866 127.2486994 212.05292342 125.90429688 212.04882812 C122.60282059 212.03699488 119.30143197 212.02050971 116 212 C114.77233713 207.87167159 115.41427408 204.46078334 116.25 200.3125 C116.38913818 199.59932617 116.52827637 198.88615234 116.67163086 198.15136719 C118.03334552 191.41099458 119.84136426 185.12748221 123 179 C122.5153125 178.61585938 122.030625 178.23171875 121.53125 177.8359375 C119.48030257 175.37689338 119.53476554 173.79735511 119.5 170.625 C119.45359375 169.22121094 119.45359375 169.22121094 119.40625 167.7890625 C120 165 120 165 122.49589539 162.72261047 C125.52524881 159.42891847 125.63295925 158.05111127 125.65942383 153.64916992 C125.67906693 152.3882402 125.69871002 151.12731049 125.71894836 149.82817078 C125.71550544 148.46226866 125.71152046 147.09636782 125.70703125 145.73046875 C125.72015366 144.32511763 125.73545957 142.91978534 125.75285339 141.51448059 C125.79265426 137.82697574 125.80289051 134.1399648 125.80688477 130.45227051 C125.81622571 126.68482528 125.85364509 122.91766912 125.88867188 119.15039062 C125.95319731 111.76692454 125.98647848 104.38375438 126 97 C125.42374374 97.30442017 124.84748749 97.60884033 124.25376892 97.92248535 C103.40035714 108.92646835 103.40035714 108.92646835 93.5625 113.5 C91.85524253 114.3016017 90.1482049 115.10367183 88.44140625 115.90625 C87.28729248 116.44185547 87.28729248 116.44185547 86.10986328 116.98828125 C84.25856841 117.87601163 82.45075586 118.85325932 80.65234375 119.84375 C78 121 78 121 75.828125 121.09375 C72.90605694 119.34550415 72.02211248 116.51875214 70.75 113.5 C70.449729 112.83871094 70.14945801 112.17742187 69.84008789 111.49609375 C68.19514084 107.86047621 66.6824212 104.19739199 65.26171875 100.46875 C62.31879077 93.05913636 60.02493653 87.68165709 52.625 83.875 C50.76498763 83.1341644 48.90308432 82.39510854 47.01416016 81.73144531 C44.88368886 80.95776143 42.83255414 80.06933137 40.76171875 79.1484375 C15.08477851 68.00174849 -11.35810001 68.98615849 -37.21704102 78.90234375 C-39.01327397 79.61121112 -40.80695692 80.3265843 -42.59765625 81.04931641 C-44.63650016 81.85615159 -46.7065068 82.5835266 -48.78125 83.29296875 C-56.0801015 86.14062672 -59.05158575 90.46066949 -62.18896484 97.38476562 C-62.81066317 98.82670996 -63.42391411 100.27232151 -64.02929688 101.72119141 C-65.39315463 104.92296411 -66.89684629 108.05269487 -68.39746094 111.19213867 C-69.95430689 114.45096612 -71.47626153 117.72558328 -73 121 C-77.84054493 120.44742638 -81.66908248 118.92312777 -85.9375 116.6875 C-86.61425781 116.34138672 -87.29101562 115.99527344 -87.98828125 115.63867188 C-90.33098509 114.43605611 -92.66597126 113.21936428 -95 112 C-95.90121582 111.53029785 -96.80243164 111.0605957 -97.73095703 110.57666016 C-101.65001254 108.53335767 -105.56799792 106.48804266 -109.48339844 104.43774414 C-117.6059239 100.18844751 -125.78501935 96.0668221 -134 92 C-136.33445721 90.83556753 -138.66720191 89.6677569 -141 88.5 C-141.969375 88.0153125 -142.93875 87.530625 -143.9375 87.03125 C-144.618125 86.6909375 -145.29875 86.350625 -146 86 C-146 84.68 -146 83.36 -146 82 C-145.26475098 81.60731934 -144.52950195 81.21463867 -143.77197266 80.81005859 C-140.9938712 79.32476727 -138.21701025 77.83718727 -135.44091797 76.34814453 C-133.66856363 75.39834561 -131.89484521 74.45109348 -130.12109375 73.50390625 C-124.02559752 70.23231223 -118.03052975 66.86277183 -112.12255859 63.26416016 C-109.48202199 61.69150102 -106.77290928 60.32343397 -104 59 C-99.33364024 56.71151705 -94.90076123 54.20409207 -90.47265625 51.48828125 C-87.0798525 49.44616714 -83.60151215 47.57956959 -80.1171875 45.69921875 C-76.39116176 43.66811449 -72.69512798 41.58662994 -69 39.5 C-64.394677 36.89938511 -59.77958596 34.32439413 -55.125 31.8125 C-50.84341161 29.49277375 -46.67785618 27.01832152 -42.515625 24.4921875 C-39.05311847 22.43834046 -35.5144333 20.53785849 -31.97265625 18.625 C-26.89050377 15.84684569 -21.87721425 12.94831331 -16.85546875 10.06298828 C-14.91686231 8.95237085 -12.9745528 7.84847124 -11.03125 6.74609375 C-10.38776611 6.3804834 -9.74428223 6.01487305 -9.08129883 5.63818359 C-7.83961676 4.93290434 -6.59728815 4.22876188 -5.35424805 3.52587891 C-2.5065774 1.99918434 -2.5065774 1.99918434 0 0 Z " fill="#0170EB" transform="translate(329,252)"/>
<path d="M0 0 C1.26642334 -0.01283524 2.53284668 -0.02567047 3.83764648 -0.03889465 C5.2368124 -0.04707334 6.63598278 -0.05451489 8.03515625 -0.0612793 C8.74116974 -0.06535482 9.44718323 -0.06943035 10.17459106 -0.07362938 C13.92889109 -0.09454847 17.6831542 -0.10881113 21.4375 -0.11816406 C24.51583151 -0.12694227 27.59369949 -0.14760943 30.671875 -0.1796875 C57.03104006 -0.44848444 80.33448513 0.18279266 100.4765625 19.4309082 C104.96629132 24.13475225 108.53939868 28.47398243 111.22265625 34.42700195 C111.69960937 35.4634082 112.1765625 36.49981445 112.66796875 37.56762695 C116.41062114 47.01629037 117.64871378 55.16095237 117.59765625 65.36450195 C117.59338623 66.649375 117.58911621 67.93424805 117.5847168 69.25805664 C117.41276634 78.84596544 116.32174952 86.54107793 112.09765625 95.17700195 C111.73671875 96.00200195 111.37578125 96.82700195 111.00390625 97.67700195 C107.74384265 104.38341851 102.47960104 110.08082414 97.09765625 115.17700195 C96.43765625 115.17700195 95.77765625 115.17700195 95.09765625 115.17700195 C95.09765625 115.83700195 95.09765625 116.49700195 95.09765625 117.17700195 C93.10939448 118.42898553 91.1096721 119.65163093 89.09765625 120.86450195 C87.98390625 121.54899414 86.87015625 122.23348633 85.72265625 122.9387207 C74.51694486 128.81547015 62.99820507 130.94608629 50.48730469 131.03637695 C48.41604947 131.0515025 46.34789102 131.09899804 44.27734375 131.15356445 C27.22403295 131.50914662 10.14123632 130.70992816 -6.90234375 130.17700195 C-6.9256725 113.37476374 -6.94332281 96.57253057 -6.95415592 79.77027988 C-6.95931893 71.96924359 -6.96636172 64.16821735 -6.9777832 56.3671875 C-6.9877299 49.57023882 -6.99419714 42.77329742 -6.99643224 35.97634166 C-6.99773938 32.37522064 -7.00082539 28.77412043 -7.00807381 25.17300606 C-7.01608739 21.15943593 -7.0163349 17.14590231 -7.01586914 13.13232422 C-7.01946442 11.92967422 -7.02305969 10.72702423 -7.02676392 9.4879303 C-7.02538925 8.40112976 -7.02401459 7.31432922 -7.02259827 6.19459534 C-7.02352006 5.24422677 -7.02444185 4.2938582 -7.02539158 3.31469059 C-6.77299314 -1.07018384 -3.73423336 0.03285166 0 0 Z M21.09765625 27.17700195 C21.09765625 52.58700195 21.09765625 77.99700195 21.09765625 104.17700195 C51.78201667 106.42293456 51.78201667 106.42293456 78.09765625 94.17700195 C78.09765625 93.51700195 78.09765625 92.85700195 78.09765625 92.17700195 C78.75765625 92.17700195 79.41765625 92.17700195 80.09765625 92.17700195 C88.62496082 81.0776028 89.47654807 68.74395514 87.703125 55.15356445 C85.63842719 45.85576401 80.31888226 37.85798768 72.28515625 32.67700195 C56.788561 23.68074843 38.06224925 27.17700195 21.09765625 27.17700195 Z " fill="#14181A" transform="translate(1118.90234375,384.822998046875)"/>
<path d="M0 0 C0.91696152 0.00561951 1.83392303 0.01123901 2.77867126 0.01702881 C3.74296051 0.01513046 4.70724976 0.01323212 5.70075989 0.01127625 C8.89925679 0.00756096 12.0975284 0.01828267 15.29600525 0.02947998 C17.51035536 0.03067138 19.72470598 0.03112503 21.9390564 0.03086853 C26.58370621 0.03243465 31.22827909 0.04073473 35.87290955 0.05413818 C41.84099428 0.07113808 47.80899445 0.07495232 53.77710056 0.074193 C58.3502687 0.07446428 62.92341817 0.07993849 67.49658012 0.08719444 C69.69791968 0.0903873 71.89926136 0.09234995 74.1006031 0.09308815 C77.17041287 0.09524464 80.24013102 0.10397354 83.30992126 0.11468506 C84.22890701 0.11423187 85.14789276 0.11377869 86.09472656 0.11331177 C92.36512513 0.14547486 92.36512513 0.14547486 93.479599 1.25994873 C93.57919521 3.10153896 93.6104031 4.9469184 93.6124115 6.79119873 C93.61370056 7.91139404 93.61498962 9.03158936 93.61631775 10.18572998 C93.61245056 11.36522217 93.60858337 12.54471436 93.604599 13.75994873 C93.60846619 14.93944092 93.61233337 16.11893311 93.61631775 17.33416748 C93.61502869 18.45436279 93.61373962 19.57455811 93.6124115 20.72869873 C93.61128357 21.76446045 93.61015564 22.80022217 93.60899353 23.86737061 C93.479599 26.25994873 93.479599 26.25994873 92.479599 27.25994873 C90.24030014 27.35431403 87.9979815 27.377372 85.75669861 27.37347412 C85.0542955 27.37362015 84.3518924 27.37376617 83.62820435 27.37391663 C81.29608621 27.37321745 78.964047 27.3654249 76.63194275 27.35760498 C75.01911462 27.35574081 73.40628593 27.35431691 71.79345703 27.35331726 C67.54044543 27.34949196 63.28746776 27.33966158 59.0344696 27.32861328 C54.6978247 27.31839942 50.36117433 27.3138197 46.02452087 27.30877686 C37.50952957 27.29803932 28.99457241 27.28044243 20.479599 27.25994873 C20.479599 35.83994873 20.479599 44.41994873 20.479599 53.25994873 C42.589599 53.25994873 64.699599 53.25994873 87.479599 53.25994873 C87.479599 61.50994873 87.479599 69.75994873 87.479599 78.25994873 C86.479599 79.25994873 86.479599 79.25994873 83.85372925 79.38020325 C82.68346695 79.37798264 81.51320465 79.37576202 80.30747986 79.37347412 C79.66359818 79.37362015 79.01971649 79.37376617 78.35632324 79.37391663 C76.21899597 79.37321758 74.08175487 79.36542564 71.94444275 79.35760498 C70.46613615 79.35574077 68.98782893 79.35431688 67.50952148 79.35331726 C63.61161098 79.34949232 59.71373751 79.33966225 55.81584167 79.32861328 C51.84113567 79.31839865 47.86642371 79.31381953 43.89170837 79.30877686 C36.08765304 79.29803995 28.28363592 79.28044335 20.479599 79.25994873 C20.479599 87.50994873 20.479599 95.75994873 20.479599 104.25994873 C23.7433844 104.25209351 23.7433844 104.25209351 27.07310486 104.24407959 C34.24562819 104.22754263 41.41815234 104.21647708 48.59068966 104.20813656 C52.94128359 104.20290808 57.29185807 104.19581108 61.6424408 104.18450928 C65.83750158 104.17367914 70.03254359 104.16767163 74.22761726 104.16507149 C75.83166868 104.16321747 77.43571902 104.15959729 79.0397625 104.15421867 C81.27876415 104.14700654 83.51768729 104.14595786 85.75669861 104.14642334 C87.03355026 104.14420273 88.31040192 104.14198212 89.62594604 104.13969421 C92.479599 104.25994873 92.479599 104.25994873 93.479599 105.25994873 C93.57919521 107.10153896 93.6104031 108.9469184 93.6124115 110.79119873 C93.61370056 111.91139404 93.61498962 113.03158936 93.61631775 114.18572998 C93.61245056 115.36522217 93.60858337 116.54471436 93.604599 117.75994873 C93.60846619 118.93944092 93.61233337 120.11893311 93.61631775 121.33416748 C93.61502869 122.45436279 93.61373962 123.57455811 93.6124115 124.72869873 C93.61128357 125.76446045 93.61015564 126.80022217 93.60899353 127.86737061 C93.479599 130.25994873 93.479599 130.25994873 92.479599 131.25994873 C89.41578325 131.36593788 86.3743856 131.4067236 83.30992126 131.4052124 C81.86611588 131.41025032 81.86611588 131.41025032 80.3931427 131.41539001 C77.19408395 131.42493123 73.99507736 131.4268447 70.79600525 131.42791748 C68.58262103 131.43112781 66.36923703 131.4344917 64.15585327 131.43800354 C59.50945036 131.44400272 54.86306606 131.44584263 50.21665955 131.44525146 C44.24973768 131.44514979 38.28293466 131.45880444 32.31604099 131.47602367 C27.74283291 131.48711771 23.1696538 131.48917148 18.59643364 131.48864174 C16.39591499 131.48982569 14.19539569 131.49427052 11.99489021 131.50197411 C8.92273147 131.51172194 5.85083381 131.50891666 2.77867126 131.50286865 C1.86170975 131.50848816 0.94474823 131.51410767 0 131.51989746 C-6.29208587 131.48826386 -6.29208587 131.48826386 -8.520401 129.25994873 C-8.77208328 127.03603363 -8.77208328 127.03603363 -8.77436829 124.21148682 C-8.78000793 123.14303024 -8.78564758 122.07457367 -8.79145813 120.97373962 C-8.78740967 119.79652847 -8.78336121 118.61931732 -8.77919006 117.40643311 C-8.7826947 116.17065018 -8.78619934 114.93486725 -8.78981018 113.66163635 C-8.79711946 110.26701522 -8.79538503 106.87263693 -8.78905201 103.47802925 C-8.78399829 99.930194 -8.78868171 96.38236933 -8.79182434 92.83453369 C-8.79546583 86.87589651 -8.79066013 80.91730886 -8.78114319 74.9586792 C-8.77025826 68.06380096 -8.77378371 61.169041 -8.784796 54.27416563 C-8.79386371 48.36075689 -8.7951567 42.4473838 -8.78991866 36.53397036 C-8.7867961 32.99934735 -8.78639741 29.46477998 -8.79299164 25.93016052 C-8.79982651 21.99121481 -8.79036076 18.05240222 -8.77919006 14.11346436 C-8.78323853 12.9362532 -8.78728699 11.75904205 -8.79145813 10.54615784 C-8.78581848 9.47770126 -8.78017883 8.40924469 -8.77436829 7.30841064 C-8.77361423 6.3763102 -8.77286018 5.44420975 -8.77208328 4.48386383 C-8.17941894 -0.7530371 -4.35809511 0.02191042 0 0 Z " fill="#0163E3" transform="translate(1289.5204010009766,384.74005126953125)"/>
<path d="M0 0 C12.00480055 9.58862041 12.00480055 9.58862041 13.46484375 13.96875 C10.79167194 16.41096763 8.1141869 18.84801869 5.42578125 21.2734375 C3.62841327 22.89809235 1.87184538 24.54191565 0.12890625 26.2265625 C-0.54398438 26.86335938 -1.216875 27.50015625 -1.91015625 28.15625 C-2.49539063 28.72730469 -3.080625 29.29835938 -3.68359375 29.88671875 C-5.53515625 30.96875 -5.53515625 30.96875 -8.12109375 30.81640625 C-11.11218081 29.76613782 -12.14998448 28.04645822 -14.03515625 25.58984375 C-19.80178322 19.35768179 -30.04579849 16.01515828 -38.33203125 15.5 C-39.98277057 15.46673158 -41.63412462 15.45684777 -43.28515625 15.46875 C-44.58851929 15.47189209 -44.58851929 15.47189209 -45.91821289 15.47509766 C-53.65575522 15.66282208 -59.57176839 17.55431019 -66.53515625 20.96875 C-67.45425781 21.29101562 -68.37335937 21.61328125 -69.3203125 21.9453125 C-70.05121094 22.28304687 -70.78210938 22.62078125 -71.53515625 22.96875 C-71.86515625 23.95875 -72.19515625 24.94875 -72.53515625 25.96875 C-73.25703125 26.608125 -73.97890625 27.2475 -74.72265625 27.90625 C-80.42582043 33.37663196 -84.25077103 42.14815633 -84.53515625 49.96875 C-84.57253906 50.81050781 -84.60992188 51.65226562 -84.6484375 52.51953125 C-84.99023103 65.52567434 -81.6586475 75.36861479 -72.7265625 84.92578125 C-64.06223977 93.00321581 -52.13714199 95.61326391 -40.54296875 95.25 C-27.34180653 94.01560561 -17.3335195 88.81592476 -8.53515625 78.96875 C-4.53895121 80.70967101 -1.21682479 83.32900497 2.21484375 85.96875 C2.81683594 86.41992188 3.41882813 86.87109375 4.0390625 87.3359375 C5.55390731 88.49697502 7.01454196 89.72802939 8.46484375 90.96875 C8.46484375 91.62875 8.46484375 92.28875 8.46484375 92.96875 C10.44484375 93.46375 10.44484375 93.46375 12.46484375 93.96875 C13.22265625 95.671875 13.22265625 95.671875 13.46484375 97.96875 C3.93243866 111.37797056 -13.33861733 119.25155266 -29.00048828 122.57177734 C-50.82832763 125.99039291 -69.56355957 121.36276307 -88.53515625 110.96875 C-88.53515625 110.30875 -88.53515625 109.64875 -88.53515625 108.96875 C-89.25703125 108.7625 -89.97890625 108.55625 -90.72265625 108.34375 C-93.74272 106.86727439 -95.25697581 105.1671573 -97.2890625 102.52734375 C-98.63601708 100.76250939 -98.63601708 100.76250939 -100.97265625 98.71875 C-113.52755808 85.24519682 -116.12455932 67.5598916 -115.87890625 49.93359375 C-115.24504327 33.28148514 -107.03121526 17.2576802 -95.20703125 5.69140625 C-69.38127775 -16.92545871 -28.11917451 -20.7817562 0 0 Z " fill="#13171A" transform="translate(871.53515625,395.03125)"/>
<path d="M0 0 C1.21042969 -0.02900391 2.42085937 -0.05800781 3.66796875 -0.08789062 C5.40626953 -0.10045898 5.40626953 -0.10045898 7.1796875 -0.11328125 C8.24687012 -0.12786377 9.31405273 -0.14244629 10.41357422 -0.1574707 C13.125 0.3125 13.125 0.3125 14.88427734 2.1015625 C15.99757626 4.085434 17.02165966 6.02500329 17.921875 8.11328125 C18.23705078 8.83531738 18.55222656 9.55735352 18.87695312 10.30126953 C19.20630859 11.06810059 19.53566406 11.83493164 19.875 12.625 C20.58749782 14.25436311 21.30105567 15.88326305 22.015625 17.51171875 C22.54833008 18.72867432 22.54833008 18.72867432 23.09179688 19.97021484 C27.08961671 29.03332531 31.40592983 37.93336036 35.86547852 46.77661133 C41.62398318 58.23487434 47.07936502 69.84605786 52.546875 81.4453125 C56.04101154 88.85668915 59.56158853 96.24549879 63.25 103.5625 C65.92022424 108.87432229 68.56314433 114.19742591 71.125 119.5625 C71.42809082 120.18286133 71.73118164 120.80322266 72.04345703 121.44238281 C73.60031294 124.7389315 74.125 126.57145517 74.125 130.3125 C64.225 130.3125 54.325 130.3125 44.125 130.3125 C40.61243555 122.83895861 37.13375372 115.35798303 33.76977539 107.81640625 C30.37318876 100.20179362 26.85617452 92.69647975 23.0703125 85.265625 C19.92883169 78.98266338 17.09635844 72.54933838 14.18994141 66.15551758 C11.12289793 59.42981547 7.94569538 52.78670077 4.5625 46.21484375 C2.95001157 42.95919455 1.5301951 39.66238475 0.125 36.3125 C-2.10702843 39.12303787 -3.76119838 41.89442451 -5.29296875 45.13671875 C-5.73866211 46.07451172 -6.18435547 47.01230469 -6.64355469 47.97851562 C-7.11180664 48.97560547 -7.58005859 49.97269531 -8.0625 51 C-8.55008789 52.02931641 -9.03767578 53.05863281 -9.54003906 54.11914062 C-10.9894021 57.18155052 -12.43273984 60.24673991 -13.875 63.3125 C-14.62602082 64.90247664 -15.3772948 66.49233373 -16.12890625 68.08203125 C-18.66181746 73.44641436 -21.18419913 78.81550043 -23.67578125 84.19921875 C-26.48564896 90.26428877 -29.34734929 96.28910194 -32.375 102.25 C-35.30386607 108.04176668 -37.9538778 113.91755701 -40.47851562 119.89624023 C-43.81778362 127.73136637 -43.81778362 127.73136637 -45.875 130.3125 C-49.8911907 131.24872838 -53.6065731 131.39000453 -57.7109375 131.19140625 C-58.77441406 131.14306641 -59.83789062 131.09472656 -60.93359375 131.04492188 C-62.02800781 130.98884766 -63.12242187 130.93277344 -64.25 130.875 C-65.36761719 130.82279297 -66.48523438 130.77058594 -67.63671875 130.71679688 C-70.38313492 130.58769184 -73.12913422 130.45275096 -75.875 130.3125 C-76.205 129.6525 -76.535 128.9925 -76.875 128.3125 C-75.80197312 126.03193575 -74.6725383 123.87881319 -73.4375 121.6875 C-72.68578015 120.31604544 -71.93583296 118.94361804 -71.1875 117.5703125 C-70.80078125 116.86293945 -70.4140625 116.15556641 -70.015625 115.42675781 C-68.25883926 112.17038699 -66.58877712 108.8733793 -64.9375 105.5625 C-64.61080322 104.90749512 -64.28410645 104.25249023 -63.94750977 103.57763672 C-60.96362987 97.55484783 -58.09952106 91.47655215 -55.23730469 85.39526367 C-51.08870165 76.60140645 -46.71651805 67.92396134 -42.32421875 59.25 C-37.32067497 49.32383228 -32.63492128 39.25082837 -27.94921875 29.171875 C-14.43910022 0.11459603 -14.43910022 0.11459603 0 0 Z " fill="#14181B" transform="translate(992.875,384.6875)"/>
<path d="M0 0 C1.16337891 0.00966797 2.32675781 0.01933594 3.52539062 0.02929688 C4.74033203 0.05443359 5.95527344 0.07957031 7.20703125 0.10546875 C9.0468457 0.12577148 9.0468457 0.12577148 10.92382812 0.14648438 C13.95616789 0.18188134 16.98763121 0.23126115 20.01953125 0.29296875 C24.2966758 8.74236874 28.48912977 17.22278606 32.51953125 25.79296875 C36.55247626 34.36243612 40.74763502 42.84057702 45.01953125 51.29296875 C46.29270959 53.81262872 47.56314277 56.33364626 48.83203125 58.85546875 C49.37472656 59.92925781 49.91742187 61.00304687 50.4765625 62.109375 C52.10191574 65.46295195 53.55880818 68.86474113 55.01953125 72.29296875 C56.22436822 74.9503437 57.46264272 77.5914166 58.70703125 80.23046875 C59.05515869 80.96990723 59.40328613 81.7093457 59.76196289 82.47119141 C62.40502872 88.05687449 65.14692493 93.58752874 67.93481445 99.10205078 C71.09266662 105.37435887 74.08568391 111.72189071 77.05053711 118.08740234 C77.40897705 118.85262207 77.76741699 119.6178418 78.13671875 120.40625 C78.45237793 121.08469971 78.76803711 121.76314941 79.09326172 122.4621582 C80.10112763 124.54464172 80.10112763 124.54464172 82.01953125 127.29296875 C81.68953125 128.61296875 81.35953125 129.93296875 81.01953125 131.29296875 C71.11953125 130.96296875 61.21953125 130.63296875 51.01953125 130.29296875 C49.03953125 125.83796875 47.05953125 121.38296875 45.01953125 116.79296875 C41.2121234 108.26815623 37.38530343 99.78084226 33.11694336 91.47387695 C29.76039086 84.89343858 26.68033526 78.18533613 23.58203125 71.48046875 C23.01847972 70.26171579 22.45492181 69.04296577 21.89135742 67.82421875 C20.78883628 65.43948246 19.68637744 63.05471737 18.58398438 60.66992188 C16.35042258 55.84866302 14.09885352 51.03616981 11.83203125 46.23046875 C11.46988525 45.45791748 11.10773926 44.68536621 10.73461914 43.8894043 C9.30868445 40.87418614 7.87324129 38.07353382 6.01953125 35.29296875 C5.62797852 36.12151367 5.62797852 36.12151367 5.22851562 36.96679688 C0.57694071 46.7994605 -4.09641227 56.61395865 -9.00537109 66.32104492 C-11.6326935 71.53936426 -14.12620081 76.81546609 -16.60546875 82.10546875 C-19.43850955 88.14776177 -22.36752064 94.07859134 -25.69140625 99.87109375 C-26.99144135 102.31358394 -28.08000333 104.8068528 -29.15039062 107.35693359 C-30.68717764 110.94126331 -32.37500694 114.45577765 -34.04296875 117.98046875 C-34.39423828 118.72619141 -34.74550781 119.47191406 -35.10742188 120.24023438 C-36.06058557 122.26007654 -37.01389424 124.27950857 -37.98046875 126.29296875 C-38.40863892 127.37155151 -38.40863892 127.37155151 -38.84545898 128.47192383 C-39.98046875 130.29296875 -39.98046875 130.29296875 -41.72558594 131.05053711 C-44.54106504 131.35324074 -47.22854331 131.29673017 -50.05859375 131.171875 C-51.21875 131.12353516 -52.37890625 131.07519531 -53.57421875 131.02539062 C-54.78078125 130.96931641 -55.98734375 130.91324219 -57.23046875 130.85546875 C-58.4525 130.80326172 -59.67453125 130.75105469 -60.93359375 130.69726562 C-63.94948356 130.56767661 -66.96503521 130.43271299 -69.98046875 130.29296875 C-69.1813456 125.75004828 -67.52982796 122.04915186 -65.41796875 117.98046875 C-64.68474143 116.54174535 -63.95167276 115.10294108 -63.21875 113.6640625 C-62.84443848 112.93429199 -62.47012695 112.20452148 -62.08447266 111.45263672 C-60.40175492 108.16088061 -58.75424024 104.85181902 -57.10546875 101.54296875 C-56.44160418 100.2147448 -55.77753651 98.88662235 -55.11328125 97.55859375 C-54.59942871 96.53088867 -54.59942871 96.53088867 -54.07519531 95.48242188 C-50.53515625 88.40234375 -50.53515625 88.40234375 -49.26489258 85.86206055 C-48.40769862 84.1475097 -47.55076556 82.4328284 -46.6940918 80.71801758 C-44.76299486 76.85322964 -42.82948579 72.98978137 -40.8828125 69.1328125 C-36.91590164 61.26146181 -33.08737494 53.33535471 -29.33569336 45.35913086 C-26.64564395 39.65483919 -23.86204949 34.00543038 -21.01098633 28.38012695 C-19.14156608 24.67342948 -17.33728415 20.94378629 -15.5859375 17.1796875 C-15.18310547 16.31537109 -14.78027344 15.45105469 -14.36523438 14.56054688 C-13.5834038 12.87572111 -12.80710523 11.1883141 -12.03710938 9.49804688 C-11.68197266 8.73298828 -11.32683594 7.96792969 -10.9609375 7.1796875 C-10.65051514 6.50123779 -10.34009277 5.82278809 -10.02026367 5.1237793 C-7.36391079 0.44662732 -5.35762477 -0.07840426 0 0 Z " fill="#13171A" transform="translate(645.98046875,384.70703125)"/>
<path d="M0 0 C4.42887341 -0.19893013 8.85533305 -0.34344922 13.28735352 -0.43945312 C14.79204633 -0.47949646 16.29643149 -0.53395384 17.80004883 -0.60351562 C30.24912582 -1.16469377 30.24912582 -1.16469377 34.453125 1.63183594 C36.24854134 3.66172829 37.63424697 5.66416665 39 8 C39.69867187 8.91265625 40.39734375 9.8253125 41.1171875 10.765625 C41.98730469 11.99539063 41.98730469 11.99539063 42.875 13.25 C46.4288883 18.21448751 50.0621818 23.11075932 53.734375 27.98828125 C55.18717973 29.91950961 56.63551048 31.85411653 58.078125 33.79296875 C62.64363847 39.92259331 67.298836 45.97403636 72 52 C78.58501596 60.44480627 85.04663349 68.96959801 91.37890625 77.60546875 C99.54141208 88.75444397 99.54141208 88.75444397 108.078125 99.6171875 C110.87438109 103.08409038 113.57064151 106.62691511 116.27246094 110.16748047 C119.55275111 114.45425223 122.94477122 118.63882458 126.40625 122.78125 C128.0751717 125.1046508 129.05290389 127.31024704 130 130 C124.20960705 131.74355263 118.05268009 131.30861009 112.0625 131.375 C110.78697266 131.41238281 109.51144531 131.44976563 108.19726562 131.48828125 C98.81632248 131.57682712 98.81632248 131.57682712 94.87109375 128.7890625 C94.25363281 127.86867188 93.63617187 126.94828125 93 126 C92.32324219 125.18660156 91.64648438 124.37320313 90.94921875 123.53515625 C88.08533484 119.81038539 85.2702787 116.05116679 82.4609375 112.28515625 C80.79362485 110.05202866 79.11016515 107.83242758 77.4140625 105.62109375 C76.99922607 105.07718994 76.58438965 104.53328613 76.15698242 103.97290039 C74.99161316 102.44590503 73.82207817 100.92209157 72.65234375 99.3984375 C71 97 71 97 71 95 C70.34 95 69.68 95 69 95 C67.78125 93.50390625 67.78125 93.50390625 66.5 91.5625 C64.7134637 88.77468153 64.7134637 88.77468153 62 87 C61.86078125 87.85078125 61.86078125 87.85078125 61.71875 88.71875 C60.82016877 91.5707687 59.42241171 93.21141463 57.5 95.5 C49.06497701 105.75759045 40.83011162 116.45840635 33.625 127.625 C32 130 32 130 30 131 C27.42622344 131.10093241 24.88604308 131.14080419 22.3125 131.125 C21.18630249 131.12209961 21.18630249 131.12209961 20.03735352 131.11914062 C12.66566519 131.06344102 5.34617666 130.59881498 -2 130 C-0.125 125.25 -0.125 125.25 1 123 C1.66 123 2.32 123 3 123 C3.27150879 122.42217773 3.54301758 121.84435547 3.82275391 121.24902344 C5.00303139 118.9942088 6.32011976 117.05789733 7.8359375 115.015625 C8.39941895 114.25354736 8.96290039 113.49146973 9.54345703 112.70629883 C10.4500708 111.49043091 10.4500708 111.49043091 11.375 110.25 C12.31448486 108.98289185 12.31448486 108.98289185 13.27294922 107.69018555 C15.17794466 105.12376682 17.08785155 102.56109262 19 100 C19.81114258 98.91356201 19.81114258 98.91356201 20.63867188 97.80517578 C22.13258799 95.80646826 23.62824921 93.80908545 25.125 91.8125 C25.60420898 91.17304443 26.08341797 90.53358887 26.57714844 89.87475586 C29.1506206 86.44619616 31.73897872 83.02985114 34.34375 79.625 C34.89272949 78.9033667 35.44170898 78.1817334 36.00732422 77.43823242 C37.05631459 76.05979005 38.10976627 74.68472692 39.16845703 73.3137207 C43.03931281 68.57214449 43.03931281 68.57214449 45 63 C43.53859032 60.09937211 41.55335677 57.69061725 39.5 55.1875 C38.42708333 53.82682292 37.35416667 52.46614583 36.28125 51.10546875 C35.74371094 50.43435059 35.20617188 49.76323242 34.65234375 49.07177734 C32.94669398 46.9331627 31.25948559 44.78314682 29.59375 42.61328125 C28.84641602 41.64515503 28.84641602 41.64515503 28.08398438 40.6574707 C27 39 27 39 27 37 C25.515 36.505 25.515 36.505 24 36 C22.30859375 33.953125 22.30859375 33.953125 20.4375 31.25 C17.36501918 26.89543618 14.21227073 22.6395512 10.9375 18.4375 C6.77855548 13.07912066 2.82067644 7.6045022 -1 2 C-0.67 1.34 -0.34 0.68 0 0 Z " fill="#015EDD" transform="translate(1423,385)"/>
<path d="M0 0 C0.84264908 -0.00419449 1.68529816 -0.00838898 2.55348206 -0.01271057 C3.47462799 -0.00709106 4.39577393 -0.00147156 5.34483337 0.00431824 C6.31741592 0.00241989 7.28999847 0.00052155 8.29205322 -0.00143433 C11.51277174 -0.00514461 14.73326569 0.00556521 17.95396423 0.01676941 C20.18690972 0.01796111 22.41985572 0.01841439 24.65280151 0.01815796 C29.33435704 0.01972323 34.01583614 0.02801675 38.69737244 0.04142761 C44.70904884 0.05842729 50.72064128 0.06224169 56.73233891 0.06148243 C61.34329027 0.06175387 65.95422315 0.06723075 70.56516838 0.07448387 C72.78242795 0.07767384 74.99968963 0.07963871 77.21695137 0.08037758 C80.31039655 0.08253711 83.40375127 0.0912727 86.49717712 0.10197449 C87.42034729 0.1015213 88.34351746 0.10106812 89.29466248 0.1006012 C90.55440636 0.10699867 90.55440636 0.10699867 91.83959961 0.11352539 C92.93714113 0.11603916 92.93714113 0.11603916 94.0568552 0.11860371 C95.85630798 0.24723816 95.85630798 0.24723816 97.85630798 1.24723816 C97.25401574 5.26373467 95.97047746 8.25859878 94.02037048 11.80973816 C93.16572205 13.3759491 93.16572205 13.3759491 92.29380798 14.97380066 C91.69568298 16.05403503 91.09755798 17.13426941 90.48130798 18.24723816 C89.89091736 19.32747253 89.30052673 20.40770691 88.69224548 21.52067566 C87.09345226 24.43739303 85.4903913 27.35014351 83.85630798 30.24723816 C83.53392654 31.11604111 83.2115451 31.98484406 82.87939453 32.87997437 C80.85630798 35.24723816 80.85630798 35.24723816 78.92401505 35.69793129 C76.25996209 35.86671552 73.63795097 35.86475707 70.96885681 35.81486511 C69.95404739 35.81559525 68.93923798 35.81632538 67.89367676 35.81707764 C64.53302408 35.81358892 61.17375034 35.77466538 57.81333923 35.73551941 C55.48592893 35.7261959 53.15850882 35.71907761 50.83108521 35.71408081 C44.7004037 35.6949749 38.57031294 35.64584222 32.43986511 35.59056091 C26.18618258 35.53944641 19.93240475 35.51658339 13.67857361 35.49137878 C1.40422528 35.43772772 -10.86968428 35.35237079 -23.14369202 35.24723816 C-24.14369202 32.24723816 -24.14369202 32.24723816 -23.31556702 30.21598816 C-22.84634827 29.40130066 -22.37712952 28.58661316 -21.89369202 27.74723816 C-21.34584045 26.78946472 -20.79798889 25.83169128 -20.23353577 24.84489441 C-19.91110901 24.29204773 -19.58868225 23.73920105 -19.25648499 23.16960144 C-17.95044421 20.91340024 -16.67454103 18.64112391 -15.39759827 16.36833191 C-14.41791725 14.64002057 -13.43744434 12.91215787 -12.45619202 11.18473816 C-11.98085022 10.33911316 -11.50550842 9.49348816 -11.01576233 8.62223816 C-10.55911194 7.8268866 -10.10246155 7.03153503 -9.63197327 6.21208191 C-9.02156189 5.13881653 -9.02156189 5.13881653 -8.39881897 4.04386902 C-6.07521126 0.71777893 -3.84273588 -0.00285955 0 0 Z " fill="#004CBC" transform="translate(277.14369201660156,517.7527618408203)"/>
<path d="M0 0 C1.02295166 0.01732178 2.04590332 0.03464355 3.09985352 0.05249023 C29.38727564 0.85714456 52.59202139 11.73422056 70.66796875 30.64453125 C71.97701172 32.08892578 71.97701172 32.08892578 73.3125 33.5625 C73.85148926 34.1392749 74.39047852 34.7160498 74.94580078 35.31030273 C76.83899529 38.43011683 76.7472532 40.88285114 76.82421875 44.515625 C76.84216995 45.17584656 76.86012115 45.83606812 76.87861633 46.51629639 C76.93258809 48.61496689 76.96657043 50.71341177 77 52.8125 C77.03318495 54.23961464 77.06767571 55.66669956 77.10351562 57.09375 C77.1883047 60.58311652 77.25517888 64.07256191 77.3125 67.5625 C75.9925 67.8925 74.6725 68.2225 73.3125 68.5625 C72.98636719 68.08039063 72.66023438 67.59828125 72.32421875 67.1015625 C71.88722656 66.46992187 71.45023437 65.83828125 71 65.1875 C70.57074219 64.56101562 70.14148438 63.93453125 69.69921875 63.2890625 C68.24329661 61.29871155 68.24329661 61.29871155 65.3125 59.5625 C65.3125 58.9025 65.3125 58.2425 65.3125 57.5625 C64.76464844 57.31757812 64.21679688 57.07265625 63.65234375 56.8203125 C60.80889769 55.29178223 58.42228567 53.42141041 55.875 51.4375 C31.07740249 32.63576221 5.05416108 26.39565245 -25.6875 26.5625 C-26.5529518 24.1653253 -26.87967181 23.01777375 -25.87060547 20.62719727 C-25.43635254 19.96776123 -25.00209961 19.3083252 -24.5546875 18.62890625 C-24.07773438 17.89736328 -23.60078125 17.16582031 -23.109375 16.41210938 C-22.59890625 15.65736328 -22.0884375 14.90261719 -21.5625 14.125 C-21.07523438 13.37412109 -20.58796875 12.62324219 -20.0859375 11.84960938 C-14.20194273 2.95319707 -10.88661332 -0.29832437 0 0 Z " fill="#13181B" transform="translate(246.6875,585.4375)"/>
<path d="M0 0 C0.91072266 -0.00773438 1.82144531 -0.01546875 2.75976562 -0.0234375 C12.11041638 0.00372488 12.11041638 0.00372488 16.3125 2.25 C17.89453125 4.92578125 17.89453125 4.92578125 19.3125 8.25 C20.04188116 9.44629183 20.79724242 10.62702758 21.57421875 11.79296875 C21.97060547 12.39173828 22.36699219 12.99050781 22.77539062 13.60742188 C23.60083961 14.84098759 24.4290264 16.07272513 25.25976562 17.30273438 C28.3125 21.92945659 28.3125 21.92945659 28.3125 25.25 C27.4306604 25.27187378 27.4306604 25.27187378 26.53100586 25.29418945 C14.49990174 25.62620335 3.00315822 26.18968531 -8.6875 29.25 C-9.32316895 29.41483887 -9.95883789 29.57967773 -10.61376953 29.74951172 C-27.14970385 34.14905516 -41.1893918 41.83969433 -54.6875 52.25 C-55.39519531 52.78367187 -56.10289062 53.31734375 -56.83203125 53.8671875 C-61.27893274 57.42069343 -64.58025911 61.73387167 -67.98828125 66.2734375 C-68.82939453 67.25183594 -68.82939453 67.25183594 -69.6875 68.25 C-70.3475 68.25 -71.0075 68.25 -71.6875 68.25 C-71.88742659 64.01847684 -72.03140112 59.78955221 -72.12695312 55.5546875 C-72.16683393 54.11897841 -72.2211655 52.68358679 -72.29101562 51.24902344 C-72.64897211 43.70035296 -72.80794666 37.68229192 -67.85546875 31.46484375 C-66.49786328 30.02922395 -65.11059236 28.62073154 -63.6875 27.25 C-62.62178116 26.06538788 -61.55861517 24.87846449 -60.5 23.6875 C-49.1026568 12.754302 -34.91477567 6.03948894 -19.6875 2.25 C-19.05432861 2.08081055 -18.42115723 1.91162109 -17.76879883 1.73730469 C-11.79537429 0.24874078 -6.13971285 -0.05281473 0 0 Z " fill="#13171B" transform="translate(404.6875,585.75)"/>
<path d="M0 0 C1.24910156 0.25652344 2.49820313 0.51304687 3.78515625 0.77734375 C17.74204886 3.83222731 30.46309869 9.42072063 43 16.1875 C43.7842334 16.60338379 44.5684668 17.01926758 45.37646484 17.44775391 C46.09785645 17.8504248 46.81924805 18.2530957 47.5625 18.66796875 C48.20316406 19.02141357 48.84382813 19.3748584 49.50390625 19.73901367 C51.40199312 21.3388209 51.62947118 22.59061094 52 25 C47.85748793 24.28739395 44.03980532 23.03552688 40.0625 21.6875 C18.89129337 14.85325092 -2.90641413 13.56619201 -25 14 C-26.19753906 14.01675781 -27.39507812 14.03351562 -28.62890625 14.05078125 C-41.86986678 14.56858418 -55.33986668 17.40308688 -68.03515625 21.15234375 C-70.86019321 21.96002889 -73.08300308 22.17678769 -76 22 C-75.2005263 18.35795313 -73.81435602 15.37897102 -72.0859375 12.09375 C-70.98950891 10.04538806 -70.98950891 10.04538806 -70.1640625 8.03125 C-68.50690922 4.4432851 -66.86882461 2.56086798 -63.25 1.1875 C-43.54122375 -3.93741453 -19.85442735 -4.33773381 0 0 Z " fill="#026FEC" transform="translate(265,640)"/>
<path d="M0 0 C2.55395487 -0.26711404 4.86274374 -0.34849029 7.4140625 -0.29296875 C8.14370209 -0.28872391 8.87334167 -0.28447906 9.62509155 -0.28010559 C11.95876759 -0.26329353 14.2915844 -0.22563868 16.625 -0.1875 C18.20571671 -0.17245634 19.78644693 -0.15876738 21.3671875 -0.14648438 C25.24512344 -0.11338201 29.12241598 -0.06158404 33 0 C33 4.89241451 31.21788991 6.73623515 28.25 10.3125 C27.75556396 10.92496582 27.26112793 11.53743164 26.75170898 12.16845703 C25.17574577 14.11889429 23.58787926 16.05925869 22 18 C20.01439592 20.45318389 18.03713324 22.91297998 16.0625 25.375 C15.56967529 25.98835205 15.07685059 26.6017041 14.5690918 27.23364258 C9.81645108 33.17540618 5.23682925 39.24262774 0.69140625 45.34375 C0.24168457 45.94445312 -0.20803711 46.54515625 -0.67138672 47.1640625 C-1.58576811 48.42759577 -2.46613188 49.71622192 -3.31689453 51.0234375 C-4.59765625 52.96875 -4.59765625 52.96875 -7 56 C-8.32 56 -9.64 56 -11 56 C-12.75 53.6875 -12.75 53.6875 -13.7265625 52.05859375 C-15.39756853 49.35730486 -17.25575475 46.81768165 -19.125 44.25 C-19.80820313 43.30640625 -20.49140625 42.3628125 -21.1953125 41.390625 C-22.93101898 38.97676619 -22.93101898 38.97676619 -25 37 C-24.70267451 32.99601678 -23.39775139 30.8626466 -20.8125 27.875 C-16.54289348 22.74991676 -12.571062 17.4402295 -8.625 12.0625 C-8.0060083 11.22122559 -7.3870166 10.37995117 -6.74926758 9.51318359 C-4.44419227 6.37223675 -2.16148118 3.24222177 0 0 Z " fill="#0271FB" transform="translate(1519,385)"/>
<path d="M0 0 C1.890625 2.70703125 1.890625 2.70703125 3.25 5.8125 C3.93835938 7.33810547 3.93835938 7.33810547 4.640625 8.89453125 C5.08921875 9.91933594 5.5378125 10.94414063 6 12 C6.98981143 14.00506193 7.98691092 16.00659825 9 18 C4.62347485 19.27139278 1.8611433 18.62159023 -2.4375 17.25 C-20.70686798 11.7615932 -38.04341027 10.61580588 -57 11 C-58.02915527 11.01087646 -58.02915527 11.01087646 -59.07910156 11.02197266 C-75.61792386 11.24712044 -92.17574196 14.44814748 -107.6953125 20.203125 C-110.11160554 21.03858904 -112.48547522 21.55257566 -115 22 C-114.62392428 19.64913981 -114.39118523 18.34733913 -112.57983398 16.73901367 C-111.97469971 16.38556885 -111.36956543 16.03212402 -110.74609375 15.66796875 C-110.06506592 15.26537842 -109.38403809 14.86278809 -108.68237305 14.44799805 C-107.94156494 14.03203369 -107.20075684 13.61606934 -106.4375 13.1875 C-105.67026611 12.75026611 -104.90303223 12.31303223 -104.11254883 11.86254883 C-76.68142431 -3.49336145 -29.5041325 -16.06764885 0 0 Z " fill="#0270EC" transform="translate(455,643)"/>
<path d="M0 0 C10.13438651 -0.23055479 19.57305242 0.92541993 29.44921875 3.16015625 C30.12001465 3.30517578 30.79081055 3.45019531 31.48193359 3.59960938 C50.70888843 7.91481615 72.09366272 18.42299098 85.44921875 33.16015625 C85.44921875 33.82015625 85.44921875 34.48015625 85.44921875 35.16015625 C81.1150436 34.54675343 77.86133265 32.95734977 74.01171875 30.91015625 C67.02604987 27.2876466 59.92679643 24.63108848 52.44921875 22.16015625 C51.02416016 21.64775391 51.02416016 21.64775391 49.5703125 21.125 C36.91001961 17.21124237 23.59471631 16.8637681 10.44921875 16.84765625 C9.15056885 16.84233887 7.85191895 16.83702148 6.51391602 16.83154297 C-0.44789342 16.88233633 -7.03691236 17.35971578 -13.8671875 18.73364258 C-16.79958034 19.19969883 -19.58643727 19.22844281 -22.55078125 19.16015625 C-20.99310038 12.36300337 -18.02962624 5.72586041 -12.55078125 1.16015625 C-8.33648561 0.37444011 -4.27801471 0.19295776 0 0 Z " fill="#10171D" transform="translate(226.55078125,615.83984375)"/>
<path d="M0 0 C2.96677875 0.10355112 2.96677875 0.10355112 5.6953125 -0.21875 C8.6671046 -0.3481593 10.31182124 -0.23433412 13.01953125 1.046875 C17.63650533 5.85053317 22.01953125 12.35361824 22.01953125 19.046875 C21.21257812 18.9025 20.405625 18.758125 19.57421875 18.609375 C-6.04434948 14.69316075 -33.68035039 15.33311488 -57.98046875 25.046875 C-58.6760791 25.31967285 -59.37168945 25.5924707 -60.08837891 25.87353516 C-62.43199313 26.79528105 -64.76990542 27.72992358 -67.10546875 28.671875 C-67.85352783 28.97327393 -68.60158691 29.27467285 -69.37231445 29.58520508 C-73.51315204 31.28284686 -73.51315204 31.28284686 -76.98046875 34.046875 C-78.30046875 34.046875 -79.62046875 34.046875 -80.98046875 34.046875 C-76.00428403 21.87982994 -56.88366698 13.98687906 -45.48046875 9.171875 C-43.64993936 8.4563267 -41.81694673 7.74701487 -39.98046875 7.046875 C-39.32433594 6.76328125 -38.66820312 6.4796875 -37.9921875 6.1875 C-26.41350532 1.32792461 -12.44120318 -0.31298624 0 0 Z " fill="#0F1419" transform="translate(425.98046875,615.953125)"/>
<path d="M0 0 C0.80115234 -0.00128906 1.60230469 -0.00257813 2.42773438 -0.00390625 C3.26498047 -0.00003906 4.10222656 0.00382813 4.96484375 0.0078125 C5.80595703 0.00394531 6.64707031 0.00007812 7.51367188 -0.00390625 C13.77571693 0.00618568 13.77571693 0.00618568 14.90234375 1.1328125 C14.90234375 3.1128125 14.90234375 5.0928125 14.90234375 7.1328125 C10.28234375 7.1328125 5.66234375 7.1328125 0.90234375 7.1328125 C0.90234375 8.4528125 0.90234375 9.7728125 0.90234375 11.1328125 C5.19234375 11.1328125 9.48234375 11.1328125 13.90234375 11.1328125 C14.23234375 12.7828125 14.56234375 14.4328125 14.90234375 16.1328125 C13.90234375 17.1328125 13.90234375 17.1328125 10.9609375 17.23046875 C9.76597656 17.21886719 8.57101562 17.20726562 7.33984375 17.1953125 C5.54353516 17.18177734 5.54353516 17.18177734 3.7109375 17.16796875 C2.78410156 17.15636719 1.85726563 17.14476562 0.90234375 17.1328125 C1.23234375 18.4528125 1.56234375 19.7728125 1.90234375 21.1328125 C2.66160156 21.10960937 3.42085937 21.08640625 4.203125 21.0625 C5.19699219 21.04445313 6.19085937 21.02640625 7.21484375 21.0078125 C8.20097656 20.98460937 9.18710938 20.96140625 10.203125 20.9375 C12.90234375 21.1328125 12.90234375 21.1328125 15.90234375 23.1328125 C15.57234375 24.7828125 15.24234375 26.4328125 14.90234375 28.1328125 C11.58986188 28.16169396 8.27741208 28.17957049 4.96484375 28.1953125 C4.01931641 28.20369141 3.07378906 28.21207031 2.09960938 28.22070312 C0.75092773 28.22553711 0.75092773 28.22553711 -0.625 28.23046875 C-1.87398071 28.23832397 -1.87398071 28.23832397 -3.14819336 28.24633789 C-5.09765625 28.1328125 -5.09765625 28.1328125 -6.09765625 27.1328125 C-6.18513832 25.20613743 -6.20462959 23.27629389 -6.1953125 21.34765625 C-6.19208984 20.17783203 -6.18886719 19.00800781 -6.18554688 17.80273438 C-6.17716797 16.57103516 -6.16878906 15.33933594 -6.16015625 14.0703125 C-6.15564453 12.83474609 -6.15113281 11.59917969 -6.14648438 10.32617188 C-6.13465233 7.26167133 -6.11816798 4.19726529 -6.09765625 1.1328125 C-3.81874592 -0.00664266 -2.52983521 0.00387036 0 0 Z " fill="#10161D" transform="translate(1119.09765625,557.8671875)"/>
<path d="M0 0 C1.31355469 -0.03738281 2.62710938 -0.07476563 3.98046875 -0.11328125 C8.34916673 0.37212964 10.44016158 1.55424445 13.8125 4.3125 C15.39751985 7.48253971 15.23987318 10.85904895 14.8125 14.3125 C13.81862666 15.65040641 12.8198108 16.98468122 11.8125 18.3125 C12.42391128 20.88364212 12.42391128 20.88364212 13.8125 23.3125 C14.18375 24.075625 14.555 24.83875 14.9375 25.625 C15.22625 26.181875 15.515 26.73875 15.8125 27.3125 C14.8125 28.3125 14.8125 28.3125 12.0625 28.75 C8.55507194 28.27784622 8.12595265 28.02609963 5.9375 25.5 C3.8125 22.3125 3.8125 22.3125 3.8125 19.3125 C1.8325 19.3125 -0.1475 19.3125 -2.1875 19.3125 C-1.98125 20.42625 -1.775 21.54 -1.5625 22.6875 C-1.43875 23.88375 -1.315 25.08 -1.1875 26.3125 C-1.8475 26.9725 -2.5075 27.6325 -3.1875 28.3125 C-5.8125 27.9375 -5.8125 27.9375 -8.1875 27.3125 C-8.21636537 23.00001391 -8.23425255 18.68755238 -8.25 14.375 C-8.25837891 13.14330078 -8.26675781 11.91160156 -8.27539062 10.64257812 C-8.27861328 9.47275391 -8.28183594 8.30292969 -8.28515625 7.09765625 C-8.29039307 6.01363525 -8.29562988 4.92961426 -8.30102539 3.81274414 C-8.07142379 -1.24392253 -4.09122973 0.05816914 0 0 Z M-2.1875 7.3125 C-2.1875 9.2925 -2.1875 11.2725 -2.1875 13.3125 C-0.3003125 13.374375 -0.3003125 13.374375 1.625 13.4375 C2.33269531 13.46070313 3.04039062 13.48390625 3.76953125 13.5078125 C6.12609719 13.44504462 6.12609719 13.44504462 8.8125 11.3125 C8.4825 9.9925 8.1525 8.6725 7.8125 7.3125 C4.5125 7.3125 1.2125 7.3125 -2.1875 7.3125 Z " fill="#161A20" transform="translate(823.1875,557.6875)"/>
<path d="M0 0 C0.80566406 0.00322266 1.61132812 0.00644531 2.44140625 0.00976562 C3.70404297 0.02233398 3.70404297 0.02233398 4.9921875 0.03515625 C5.84167969 0.03966797 6.69117188 0.04417969 7.56640625 0.04882812 C9.66669659 0.06062751 11.7669508 0.07856319 13.8671875 0.09765625 C14.9296875 2.47265625 14.9296875 2.47265625 15.8671875 5.09765625 C15.5371875 5.75765625 15.2071875 6.41765625 14.8671875 7.09765625 C10.2471875 7.09765625 5.6271875 7.09765625 0.8671875 7.09765625 C0.8671875 8.41765625 0.8671875 9.73765625 0.8671875 11.09765625 C5.1571875 11.09765625 9.4471875 11.09765625 13.8671875 11.09765625 C14.1971875 12.74765625 14.5271875 14.39765625 14.8671875 16.09765625 C13.8671875 17.09765625 13.8671875 17.09765625 10.92578125 17.1953125 C9.73082031 17.18371094 8.53585937 17.17210937 7.3046875 17.16015625 C5.50837891 17.14662109 5.50837891 17.14662109 3.67578125 17.1328125 C2.74894531 17.12121094 1.82210937 17.10960937 0.8671875 17.09765625 C0.8671875 18.41765625 0.8671875 19.73765625 0.8671875 21.09765625 C7.7971875 21.59265625 7.7971875 21.59265625 14.8671875 22.09765625 C15.1971875 23.74765625 15.5271875 25.39765625 15.8671875 27.09765625 C14.27781194 28.68703181 12.62818904 28.22746768 10.4296875 28.23046875 C9.08777344 28.23240234 9.08777344 28.23240234 7.71875 28.234375 C6.77773438 28.23050781 5.83671875 28.22664062 4.8671875 28.22265625 C3.45566406 28.22845703 3.45566406 28.22845703 2.015625 28.234375 C1.12101563 28.23308594 0.22640625 28.23179687 -0.6953125 28.23046875 C-1.52160156 28.22934082 -2.34789062 28.22821289 -3.19921875 28.22705078 C-5.1328125 28.09765625 -5.1328125 28.09765625 -6.1328125 27.09765625 C-6.22029457 25.17098118 -6.23978584 23.24113764 -6.23046875 21.3125 C-6.22724609 20.14267578 -6.22402344 18.97285156 -6.22070312 17.76757812 C-6.21232422 16.53587891 -6.20394531 15.30417969 -6.1953125 14.03515625 C-6.19080078 12.79958984 -6.18628906 11.56402344 -6.18164062 10.29101562 C-6.16980858 7.22651508 -6.15332423 4.16210904 -6.1328125 1.09765625 C-3.8362755 -0.05061225 -2.54968083 -0.0179555 0 0 Z " fill="#12171B" transform="translate(736.1328125,557.90234375)"/>
<path d="M0 0 C1.19496094 -0.00386719 1.19496094 -0.00386719 2.4140625 -0.0078125 C3.24679687 -0.00007812 4.07953125 0.00765625 4.9375 0.015625 C5.77023437 0.00789062 6.60296875 0.00015625 7.4609375 -0.0078125 C8.25757813 -0.00523437 9.05421875 -0.00265625 9.875 0 C10.60589844 0.00225586 11.33679687 0.00451172 12.08984375 0.00683594 C13.9375 0.265625 13.9375 0.265625 15.9375 2.265625 C15.6075 3.915625 15.2775 5.565625 14.9375 7.265625 C10.3175 7.265625 5.6975 7.265625 0.9375 7.265625 C0.9375 8.585625 0.9375 9.905625 0.9375 11.265625 C5.2275 11.265625 9.5175 11.265625 13.9375 11.265625 C13.9375 13.245625 13.9375 15.225625 13.9375 17.265625 C9.6475 17.265625 5.3575 17.265625 0.9375 17.265625 C0.9375 18.915625 0.9375 20.565625 0.9375 22.265625 C5.8875 22.265625 10.8375 22.265625 15.9375 22.265625 C15.9375 23.915625 15.9375 25.565625 15.9375 27.265625 C14.34812444 28.85500056 12.69850154 28.39543643 10.5 28.3984375 C9.15808594 28.40037109 9.15808594 28.40037109 7.7890625 28.40234375 C6.84804687 28.39847656 5.90703125 28.39460937 4.9375 28.390625 C3.52597656 28.39642578 3.52597656 28.39642578 2.0859375 28.40234375 C1.19132812 28.40105469 0.29671875 28.39976562 -0.625 28.3984375 C-1.45128906 28.39730957 -2.27757812 28.39618164 -3.12890625 28.39501953 C-5.0625 28.265625 -5.0625 28.265625 -6.0625 27.265625 C-6.31551239 23.12600217 -6.24772549 18.97456504 -6.25 14.828125 C-6.26224609 13.65701172 -6.27449219 12.48589844 -6.28710938 11.27929688 C-6.28904297 10.16232422 -6.29097656 9.04535156 -6.29296875 7.89453125 C-6.29707764 6.86400635 -6.30118652 5.83348145 -6.30541992 4.77172852 C-5.88609703 0.44574915 -3.88771404 0.01199912 0 0 Z " fill="#0D1218" transform="translate(1202.0625,557.734375)"/>
<path d="M0 0 C4.63457853 1.42134449 6.09119581 4.11465663 8.6484375 8.06640625 C9.09832031 8.72962891 9.54820312 9.39285156 10.01171875 10.07617188 C11.11518506 11.70789333 12.19654976 13.35452285 13.2734375 15.00390625 C13.6034375 10.38390625 13.9334375 5.76390625 14.2734375 1.00390625 C15.9234375 0.67390625 17.5734375 0.34390625 19.2734375 0.00390625 C20.2734375 1.00390625 20.2734375 1.00390625 20.38696289 3.50415039 C20.38172607 4.58817139 20.37648926 5.67219238 20.37109375 6.7890625 C20.36787109 7.95888672 20.36464844 9.12871094 20.36132812 10.33398438 C20.35294922 11.56568359 20.34457031 12.79738281 20.3359375 14.06640625 C20.33142578 15.30197266 20.32691406 16.53753906 20.32226562 17.81054688 C20.31043358 20.87504742 20.29394923 23.93945346 20.2734375 27.00390625 C17.8984375 27.59765625 17.8984375 27.59765625 15.2734375 28.00390625 C11.57937131 25.23335661 8.65273422 20.96289997 6.2734375 17.00390625 C6.2734375 16.34390625 6.2734375 15.68390625 6.2734375 15.00390625 C5.6134375 15.00390625 4.9534375 15.00390625 4.2734375 15.00390625 C4.2734375 14.34390625 4.2734375 13.68390625 4.2734375 13.00390625 C3.6134375 13.00390625 2.9534375 13.00390625 2.2734375 13.00390625 C2.2734375 17.62390625 2.2734375 22.24390625 2.2734375 27.00390625 C0.6234375 27.33390625 -1.0265625 27.66390625 -2.7265625 28.00390625 C-4.50105844 26.22941031 -3.85686322 23.65373364 -3.859375 21.25390625 C-3.86066406 20.08859375 -3.86195313 18.92328125 -3.86328125 17.72265625 C-3.85941406 16.49546875 -3.85554687 15.26828125 -3.8515625 14.00390625 C-3.85542969 12.77671875 -3.85929688 11.54953125 -3.86328125 10.28515625 C-3.86199219 9.11984375 -3.86070312 7.95453125 -3.859375 6.75390625 C-3.85824707 5.67625 -3.85711914 4.59859375 -3.85595703 3.48828125 C-3.67391674 -0.0068923 -3.52862374 0.00505533 0 0 Z " fill="#15191E" transform="translate(860.7265625,557.99609375)"/>
<path d="M0 0 C1.84765625 -0.35644531 1.84765625 -0.35644531 4.0625 -0.328125 C4.85914063 -0.32296875 5.65578125 -0.3178125 6.4765625 -0.3125 C7.72566406 -0.2815625 7.72566406 -0.2815625 9 -0.25 C10.24910156 -0.24226562 10.24910156 -0.24226562 11.5234375 -0.234375 C17.69092608 -0.15453696 17.69092608 -0.15453696 20 1 C20.042721 2.66611905 20.04063832 4.33382885 20 6 C19 7 19 7 16.05859375 7.09765625 C14.26615234 7.08025391 14.26615234 7.08025391 12.4375 7.0625 C10.64119141 7.04896484 10.64119141 7.04896484 8.80859375 7.03515625 C7.88175781 7.02355469 6.95492188 7.01195312 6 7 C6 8.32 6 9.64 6 11 C10.29 11 14.58 11 19 11 C20 15 20 15 19 17 C16.05859375 17.4140625 16.05859375 17.4140625 12.4375 17.625 C11.23996094 17.69976563 10.04242187 17.77453125 8.80859375 17.8515625 C7.41833984 17.92503906 7.41833984 17.92503906 6 18 C6 19.32 6 20.64 6 22 C10.62 22 15.24 22 20 22 C20 23.98 20 25.96 20 28 C13.07 28 6.14 28 -1 28 C-2.23440712 23.06237154 -2.18407943 18.50336174 -2.1875 13.4375 C-2.19974609 12.47908203 -2.21199219 11.52066406 -2.22460938 10.53320312 C-2.22654297 9.61345703 -2.22847656 8.69371094 -2.23046875 7.74609375 C-2.23457764 6.90747803 -2.23868652 6.0688623 -2.24291992 5.20483398 C-2 3 -2 3 0 0 Z " fill="#0F1824" transform="translate(1327,558)"/>
<path d="M0 0 C8.711404 0.09531077 8.711404 0.09531077 12.8125 3.25 C16.07581306 6.77094303 17.10064732 9.55393216 17.3125 14.25 C17.10064732 18.94606784 16.07581306 21.72905697 12.8125 25.25 C7.32944072 29.46773791 0.41807752 28.74140205 -6.1875 28.25 C-7.96199594 26.47550406 -7.31780072 23.89982739 -7.3203125 21.5 C-7.32160156 20.3346875 -7.32289062 19.169375 -7.32421875 17.96875 C-7.32035156 16.7415625 -7.31648438 15.514375 -7.3125 14.25 C-7.31636719 13.0228125 -7.32023437 11.795625 -7.32421875 10.53125 C-7.32292969 9.3659375 -7.32164063 8.200625 -7.3203125 7 C-7.31918457 5.92234375 -7.31805664 4.8446875 -7.31689453 3.734375 C-7.06787413 -1.04681662 -4.17184608 0.0565674 0 0 Z M-1.1875 7.25 C-1.1875 12.2 -1.1875 17.15 -1.1875 22.25 C5.03927036 22.2962579 5.03927036 22.2962579 9.8125 19.25 C11.21707737 16.44084526 11.06145157 14.36189466 10.8125 11.25 C10.04858998 8.73130668 10.04858998 8.73130668 7.8125 7.25 C4.73356988 6.91153605 1.92727081 7.06943358 -1.1875 7.25 Z " fill="#152031" transform="translate(1417.1875,557.75)"/>
<path d="M0 0 C1.67542976 0.28604898 3.34385343 0.61781233 5 1 C5 4.3 5 7.6 5 11 C8.63 11 12.26 11 16 11 C16 7.7 16 4.4 16 1 C20.75 -0.125 20.75 -0.125 23 1 C23.02886537 5.31248609 23.04675255 9.62494762 23.0625 13.9375 C23.07087891 15.16919922 23.07925781 16.40089844 23.08789062 17.66992188 C23.09272461 19.4246582 23.09272461 19.4246582 23.09765625 21.21484375 C23.10551147 22.84087524 23.10551147 22.84087524 23.11352539 24.49975586 C23 27 23 27 22 28 C19.5 28.125 19.5 28.125 17 28 C16 27 16 27 15.90234375 24.71484375 C15.93489583 22.14322917 15.96744792 19.57161458 16 17 C12.37 17 8.74 17 5 17 C5 20.63 5 24.26 5 28 C3.02 28 1.04 28 -1 28 C-1.02886338 23.52084672 -1.04675187 19.04171709 -1.0625 14.5625 C-1.07087891 13.28310547 -1.07925781 12.00371094 -1.08789062 10.68554688 C-1.09111328 9.47060547 -1.09433594 8.25566406 -1.09765625 7.00390625 C-1.10289307 5.87799072 -1.10812988 4.7520752 -1.11352539 3.59204102 C-1 1 -1 1 0 0 Z " fill="#171C23" transform="translate(1044,558)"/>
<path d="M0 0 C3.125 1.125 3.125 1.125 4.265625 2.8828125 C5.31300585 5.26851333 6.22623751 7.67961705 7.125 10.125 C7.82102043 11.73454725 8.52895493 13.3390067 9.25 14.9375 C9.56195312 15.64519531 9.87390625 16.35289062 10.1953125 17.08203125 C10.83158165 18.48021933 11.51411315 19.85801244 12.234375 21.21484375 C13.35274537 23.61345389 13.27024055 25.51067006 13.125 28.125 C11.145 28.125 9.165 28.125 7.125 28.125 C6.465 26.475 5.805 24.825 5.125 23.125 C3.18664034 23.18510418 1.24915509 23.27391717 -0.6875 23.375 C-2.30591797 23.44460938 -2.30591797 23.44460938 -3.95703125 23.515625 C-6.98819147 23.8363917 -6.98819147 23.8363917 -8.59375 26.15625 C-9.0165625 26.8059375 -9.439375 27.455625 -9.875 28.125 C-12.5625 28.375 -12.5625 28.375 -14.875 28.125 C-14.875 19.00696228 -9.06297699 9.05822499 -4.875 1.125 C-2.875 0.125 -2.875 0.125 0 0 Z M-1.875 10.125 C-2.535 12.105 -3.195 14.085 -3.875 16.125 C-1.98320797 16.8064823 -1.98320797 16.8064823 0.125 17.125 C0.785 16.465 1.445 15.805 2.125 15.125 C1.465 13.475 0.805 11.825 0.125 10.125 C-0.535 10.125 -1.195 10.125 -1.875 10.125 Z " fill="#16202E" transform="translate(1378.875,557.875)"/>
<path d="M0 0 C1.61499023 2.16137695 1.61499023 2.16137695 2.80859375 4.98828125 C3.46311523 6.51291992 3.46311523 6.51291992 4.13085938 8.06835938 C4.56205078 9.13892578 4.99324219 10.20949219 5.4375 11.3125 C5.89576172 12.37146484 6.35402344 13.43042969 6.82617188 14.52148438 C10.43424112 23.13622588 10.43424112 23.13622588 9 27 C6.625 26.6875 6.625 26.6875 4 26 C3.34 25.01 2.68 24.02 2 23 C-0.78702342 22.48225224 -0.78702342 22.48225224 -3.9375 22.5625 C-4.99839844 22.54316406 -6.05929687 22.52382813 -7.15234375 22.50390625 C-10.12150509 22.70855899 -10.12150509 22.70855899 -11.7109375 25.01171875 C-12.13632812 25.66785156 -12.56171875 26.32398438 -13 27 C-15.6875 27.25 -15.6875 27.25 -18 27 C-17.62008841 21.68123777 -16.72763657 17.89470277 -14.1796875 13.2265625 C-12.28843269 9.6569756 -10.74949422 5.92956146 -9.1484375 2.22265625 C-6.96175084 -2.00940058 -4.1730281 -1.19596748 0 0 Z M-5 9 C-5.66 10.98 -6.32 12.96 -7 15 C-3.95086772 16.01111093 -3.95086772 16.01111093 -1 15 C-2.11854586 11.27385847 -2.11854586 11.27385847 -5 9 Z " fill="#171B20" transform="translate(787,559)"/>
<path d="M0 0 C3.91991226 1.61408152 4.16865918 2.668038 5.875 6.4375 C6.66358859 8.38875127 7.43560031 10.34681937 8.1875 12.3125 C8.7436233 13.60692493 9.3049354 14.89915401 9.875 16.1875 C10.308125 17.21875 10.74125 18.25 11.1875 19.3125 C11.6 20.199375 12.0125 21.08625 12.4375 22 C13.27436596 24.58033672 13.11717958 25.80236514 12.1875 28.3125 C10.2075 27.9825 8.2275 27.6525 6.1875 27.3125 C5.8575 25.9925 5.5275 24.6725 5.1875 23.3125 C3.24914034 23.37260418 1.31165509 23.46141717 -0.625 23.5625 C-2.24341797 23.63210938 -2.24341797 23.63210938 -3.89453125 23.703125 C-6.92569147 24.0238917 -6.92569147 24.0238917 -8.53125 26.34375 C-8.9540625 26.9934375 -9.376875 27.643125 -9.8125 28.3125 C-12.5 28.5625 -12.5 28.5625 -14.8125 28.3125 C-14.32613215 22.00678354 -12.14491064 17.13952072 -9.375 11.5 C-8.96701172 10.64212891 -8.55902344 9.78425781 -8.13867188 8.90039062 C-4.0638105 0.4515345 -4.0638105 0.4515345 0 0 Z M-1.8125 10.3125 C-2.4725 12.2925 -3.1325 14.2725 -3.8125 16.3125 C-1.92070797 16.9939823 -1.92070797 16.9939823 0.1875 17.3125 C0.8475 16.6525 1.5075 15.9925 2.1875 15.3125 C1.5275 13.6625 0.8675 12.0125 0.1875 10.3125 C-0.4725 10.3125 -1.1325 10.3125 -1.8125 10.3125 Z " fill="#151B20" transform="translate(969.8125,557.6875)"/>
<path d="M0 0 C2.0625 1.6875 2.0625 1.6875 4.0625 4.6875 C3.0725 6.1725 3.0725 6.1725 2.0625 7.6875 C1.36125 7.543125 0.66 7.39875 -0.0625 7.25 C-1.01125 7.064375 -1.96 6.87875 -2.9375 6.6875 C-3.9275 6.44 -4.9175 6.1925 -5.9375 5.9375 C-8.9747678 5.45923473 -8.9747678 5.45923473 -11.75 6.8125 C-14.07725425 8.52445338 -14.07725425 8.52445338 -14.9375 11.0625 C-14.9375 14.40866261 -13.87252029 16.00824114 -11.9375 18.6875 C-10.8331608 20.01170249 -10.8331608 20.01170249 -8.0625 19.875 C-4.77179242 19.94093513 -4.77179242 19.94093513 -1.9375 17.6875 C0.125 17.875 0.125 17.875 2.0625 18.6875 C2.7225 19.6775 3.3825 20.6675 4.0625 21.6875 C1.19008499 24.7580126 -0.66594285 26.46250767 -4.98828125 26.890625 C-10.05932749 26.9957244 -13.62555822 26.66479313 -17.9375 23.6875 C-19.75 21.125 -19.75 21.125 -20.9375 18.6875 C-21.2675 18.0275 -21.5975 17.3675 -21.9375 16.6875 C-22.30698025 11.14529632 -22.24597455 7.38339936 -18.9375 2.6875 C-13.02174552 -1.8084734 -6.95301767 -3.10666747 0 0 Z " fill="#181D24" transform="translate(1020.9375,559.3125)"/>
<path d="M0 0 C2.29296875 0.06640625 2.29296875 0.06640625 5 1 C6.3832764 3.37347426 7.36010895 5.40197872 8.3125 7.9375 C8.57611328 8.58396484 8.83972656 9.23042969 9.11132812 9.89648438 C11 14.62061688 11 14.62061688 11 17 C11.66 17 12.32 17 13 17 C13.18755859 15.92298828 13.18755859 15.92298828 13.37890625 14.82421875 C13.99952976 12.00213825 14.86326301 9.49201188 15.9375 6.8125 C16.27652344 5.95269531 16.61554688 5.09289062 16.96484375 4.20703125 C18 2 18 2 20 0 C22.625 -0.125 22.625 -0.125 25 0 C24.48100685 10.37986295 20.38526123 19.22401874 15 28 C13.02 28 11.04 28 9 28 C-0.03069861 10.77650265 -0.03069861 10.77650265 -2 3 C-1.34 2.01 -0.68 1.02 0 0 Z " fill="#141A22" transform="translate(1153,558)"/>
<path d="M0 0 C1.65 0.33 3.3 0.66 5 1 C5.33 7.6 5.66 14.2 6 21 C9.3 21 12.6 21 16 21 C16.66 21.33 17.32 21.66 18 22 C18.042721 23.66611905 18.04063832 25.33382885 18 27 C17 28 17 28 15.23413086 28.11352539 C14.48526611 28.10828857 13.73640137 28.10305176 12.96484375 28.09765625 C12.15595703 28.09443359 11.34707031 28.09121094 10.51367188 28.08789062 C9.66353516 28.07951172 8.81339844 28.07113281 7.9375 28.0625 C7.08349609 28.05798828 6.22949219 28.05347656 5.34960938 28.04882812 C3.23304337 28.03700373 1.11651315 28.01906769 -1 28 C-1.98267087 24.7657311 -2.06072562 21.9816055 -1.9140625 18.61328125 C-1.87023438 17.59298828 -1.82640625 16.57269531 -1.78125 15.52148438 C-1.7296875 14.46251953 -1.678125 13.40355469 -1.625 12.3125 C-1.58117188 11.24193359 -1.53734375 10.17136719 -1.4921875 9.06835938 C-1.12973941 1.12973941 -1.12973941 1.12973941 0 0 Z " fill="#131E2B" transform="translate(1290,558)"/>
<path d="M0 0 C3.69230769 0.69230769 3.69230769 0.69230769 5 2 C5.08651611 3.41570123 5.10704904 4.835595 5.09765625 6.25390625 C5.09443359 7.10791016 5.09121094 7.96191406 5.08789062 8.84179688 C5.07951172 9.73962891 5.07113281 10.63746094 5.0625 11.5625 C5.05798828 12.46419922 5.05347656 13.36589844 5.04882812 14.29492188 C5.03700225 16.53001314 5.0205222 18.76497437 5 21 C5.77085937 20.97679687 6.54171875 20.95359375 7.3359375 20.9296875 C8.33882812 20.91164063 9.34171875 20.89359375 10.375 20.875 C11.37273438 20.85179687 12.37046875 20.82859375 13.3984375 20.8046875 C16 21 16 21 18 23 C17.67 24.65 17.34 26.3 17 28 C11.06 28 5.12 28 -1 28 C-1.02682159 23.52079403 -1.04675177 19.04174649 -1.0625 14.5625 C-1.07087891 13.28310547 -1.07925781 12.00371094 -1.08789062 10.68554688 C-1.09111328 9.47060547 -1.09433594 8.25566406 -1.09765625 7.00390625 C-1.10289307 5.87799072 -1.10812988 4.7520752 -1.11352539 3.59204102 C-1 1 -1 1 0 0 Z " fill="#13191E" transform="translate(695,558)"/>
<path d="M0 0 C0.02886537 4.31248609 0.04675255 8.62494762 0.0625 12.9375 C0.07087891 14.16919922 0.07925781 15.40089844 0.08789062 16.66992188 C0.09111328 17.83974609 0.09433594 19.00957031 0.09765625 20.21484375 C0.10289307 21.29886475 0.10812988 22.38288574 0.11352539 23.49975586 C0 26 0 26 -1 27 C-3.5 27.125 -3.5 27.125 -6 27 C-7 26 -7 26 -7.11352539 23.49975586 C-7.10828857 22.41573486 -7.10305176 21.33171387 -7.09765625 20.21484375 C-7.09443359 19.04501953 -7.09121094 17.87519531 -7.08789062 16.66992188 C-7.07951172 15.43822266 -7.07113281 14.20652344 -7.0625 12.9375 C-7.05798828 11.70193359 -7.05347656 10.46636719 -7.04882812 9.19335938 C-7.03699608 6.12885883 -7.02051173 3.06445279 -7 0 C-4.3333581 -1.33332095 -2.83319697 -0.67102033 0 0 Z " fill="#1B212B" transform="translate(1093,559)"/>
<path d="M0 0 C2.4375 0.6875 2.4375 0.6875 5 2 C5.9375 4.5 5.9375 4.5 6 7 C4 9 4 9 0.875 9.125 C-0.07375 9.08375 -1.0225 9.0425 -2 9 C-2.66 7.35 -3.32 5.7 -4 4 C-2.68 2.68 -1.36 1.36 0 0 Z " fill="#034CBC" transform="translate(904,577)"/>
<path d="M0 0 C2.5 0.0625 2.5 0.0625 5 1 C6.3125 3.5625 6.3125 3.5625 7 6 C5.18887927 8.28773145 4.39279457 8.95209822 1.4375 9.3125 C-1 9 -1 9 -3 7 C-2.67028521 3.70285207 -2.3773161 2.3773161 0 0 Z " fill="#054EC1" transform="translate(1237,577)"/>
<path d="M0 0 C0.598125 0.20625 1.19625 0.4125 1.8125 0.625 C2.4375 3.5 2.4375 3.5 2.8125 6.625 C0.8125 8.625 0.8125 8.625 -1.6875 8.875 C-4.1875 8.625 -4.1875 8.625 -6.1875 6.625 C-6 4.125 -6 4.125 -5.1875 1.625 C-2.1875 -0.375 -2.1875 -0.375 0 0 Z " fill="#0459E2" transform="translate(1454.1875,577.375)"/>
<path d="" fill="#808080" transform="translate(0,0)"/>
<path d="" fill="#FFFFFF" transform="translate(0,0)"/>
<path d="" fill="#8080FF" transform="translate(0,0)"/>
</svg>